<svg width="536" height="1200" viewBox="0 0 536 1200" fill="none" xmlns="http://www.w3.org/2000/svg">
<line x1="93.99" y1="-4.80825e-07" x2="93.99" y2="526" stroke="black" stroke-width="22"/>
<line x1="238" y1="3.57223e-07" x2="238" y2="521.542" stroke="black" stroke-width="22"/>
<line x1="148.49" y1="-2.40413e-07" x2="148.49" y2="526" stroke="black" stroke-width="11"/>
<line x1="202.49" y1="-2.40413e-07" x2="202.49" y2="526" stroke="black" stroke-width="11"/>
<line x1="126.49" y1="-1.09278e-07" x2="126.49" y2="526" stroke="black" stroke-width="5"/>
<line x1="175.49" y1="-1.09278e-07" x2="175.49" y2="526" stroke="black" stroke-width="5"/>
<line x1="313" y1="596" x2="313" y2="1200" stroke="white" stroke-width="22"/>
<line x1="457" y1="591" x2="457" y2="1200" stroke="white" stroke-width="22"/>
<line x1="367.5" y1="596" x2="367.5" y2="1200" stroke="white" stroke-width="11"/>
<line x1="421.5" y1="596" x2="421.5" y2="1200" stroke="white" stroke-width="11"/>
<line x1="345.5" y1="596" x2="345.5" y2="1200" stroke="white" stroke-width="5"/>
<line x1="394.5" y1="596" x2="394.5" y2="1200" stroke="white" stroke-width="5"/>
<rect y="532.993" width="379" height="379" transform="rotate(-45 0 532.993)" fill="white"/>
</svg>
