<svg width="536" height="1024" viewBox="0 0 536 1024" fill="none" xmlns="http://www.w3.org/2000/svg">
<line x1="94" y1="-4.80825e-07" x2="94" y2="526" stroke="black" stroke-width="22"/>
<line x1="238.01" y1="3.57223e-07" x2="238.01" y2="521.542" stroke="black" stroke-width="22"/>
<line x1="148.5" y1="-2.40413e-07" x2="148.5" y2="526" stroke="black" stroke-width="11"/>
<line x1="202.5" y1="-2.40413e-07" x2="202.5" y2="526" stroke="black" stroke-width="11"/>
<line x1="126.5" y1="-1.09278e-07" x2="126.5" y2="526" stroke="black" stroke-width="5"/>
<line x1="175.5" y1="-1.09278e-07" x2="175.5" y2="526" stroke="black" stroke-width="5"/>
<line x1="313.01" y1="594.669" x2="313.01" y2="1024" stroke="white" stroke-width="22"/>
<line x1="457" y1="591" x2="457" y2="1024" stroke="white" stroke-width="22"/>
<line x1="367.51" y1="594.669" x2="367.51" y2="1024" stroke="white" stroke-width="11"/>
<line x1="421.51" y1="594.669" x2="421.51" y2="1024" stroke="white" stroke-width="11"/>
<line x1="345.51" y1="594.669" x2="345.51" y2="1024" stroke="white" stroke-width="5"/>
<line x1="394.51" y1="594.669" x2="394.51" y2="1024" stroke="white" stroke-width="5"/>
<rect x="0.0100098" y="532.993" width="379" height="379" transform="rotate(-45 0.0100098 532.993)" fill="white"/>
</svg>
