<?xml version="1.0" encoding="UTF-8" standalone="no"?>
<!-- Created with Inkscape (http://www.inkscape.org/) -->

<svg
   width="297mm"
   height="210mm"
   viewBox="0 0 297 210"
   version="1.1"
   id="svg5"
   xml:space="preserve"
   inkscape:export-filename="airPlanee.svg"
   inkscape:export-xdpi="96"
   inkscape:export-ydpi="96"
   xmlns:inkscape="http://www.inkscape.org/namespaces/inkscape"
   xmlns:sodipodi="http://sodipodi.sourceforge.net/DTD/sodipodi-0.dtd"
   xmlns="http://www.w3.org/2000/svg"
   xmlns:svg="http://www.w3.org/2000/svg"><sodipodi:namedview
     id="namedview7"
     pagecolor="#ffffff"
     bordercolor="#000000"
     borderopacity="0.25"
     inkscape:showpageshadow="2"
     inkscape:pageopacity="0.0"
     inkscape:pagecheckerboard="0"
     inkscape:deskcolor="#d1d1d1"
     inkscape:document-units="mm"
     showgrid="false" /><defs
     id="defs2" /><g
     inkscape:label="Layer 1"
     inkscape:groupmode="layer"
     id="layer1"><path
       id="path891"
       style="fill:#000000;stroke-width:0.129861"
       d="m -18.463528,-25.591391 c -0.191133,0.154007 -0.263936,0.305605 -0.305684,0.522066 -0.05739,0.297573 0.0196,0.536527 0.305684,0.787327 z M 236.41892,62.742492 c 0,3.9204 -4.86051,0.157034 -11.10315,1.866865 -4.43055,1.213508 -25.87477,-7.568172 -47.32111,-4.857363 -21.44634,2.710808 -42.89481,16.914105 -45.26897,17.293394 -3.84964,0.615008 -5.40857,0.718722 -10.84344,0.721278 -5.43196,0.0026 -6.84583,-0.08856 -11.33884,-0.729995 -1.55472,-0.221976 -1.92395,-0.238531 -2.2555,-0.101189 -0.41044,0.17 -0.88302,0.802016 -0.88455,1.180992 -4.6e-4,0.204777 -0.99401,0.838132 -7.26851,4.634395 l -1.749028,1.058135 -2.749835,-0.08534 -2.750096,-0.08561 -0.192072,0.377283 c -0.105658,0.207507 -0.23258,0.508786 -0.282173,0.669492 l -0.09036,0.292213 h 3.173613 3.173613 l 2.647318,1.915476 c 1.45609,1.053493 3.29855,2.380825 4.09437,2.949566 1.4246,1.018114 1.44838,1.043288 1.52657,1.632782 0.11201,0.84437 0.52741,1.18472 2.02433,1.658141 3.9561,1.251153 8.888,1.798713 13.18086,1.463425 3.62295,-0.282965 4.58519,-0.465929 14.73939,-2.800558 10.49166,-2.412218 24.98086,-15.23628 46.85103,-17.751106 21.87017,-2.514826 51.12131,5.279583 54.82924,5.043471 1.43195,-0.09118 3.47912,0.09223 4.60084,0.412156 2.663,0.759485 5.11823,3.276766 5.13321,5.2632 0.009,1.234788 -0.46078,1.520917 -2.85155,1.736876 l -0.90886,0.08217 0.83145,-0.498289 c 1.30399,-0.781638 1.60204,-1.535739 1.01613,-2.570172 -0.61473,-1.085339 -1.85914,-1.688371 -4.44734,-2.155111 -1.30285,-0.234957 -4.72018,-0.57367 -4.81643,-0.477414 -0.0247,0.02469 0.30028,1.91137 0.72206,4.192646 0.42179,2.281271 0.80739,4.440027 0.85708,4.797146 0.2427,1.744944 1.48163,3.15374 3.15829,3.591322 0.99039,0.258465 2.43443,0.295092 4.10176,0.104093 2.43346,-0.278762 4.17832,-0.743696 7.27775,-1.939781 4.89785,-1.890107 8.33309,-2.442739 14.28471,-2.298045 4.77912,0.116174 8.3549,0.619239 12.07384,1.698832 0.85534,0.248291 1.57097,0.435659 1.59024,0.416385 0.0193,-0.01928 -0.79047,-0.789951 -1.79949,-1.712836 -1.00903,-0.922885 -1.90009,-1.738977 -1.97995,-1.813494 -1.02469,-0.956209 -4.69769,-4.010943 -6.60561,-5.493586 -1.33919,-1.040681 -2.43406,-1.923851 -2.43253,-1.962502 0.003,-0.09678 2.6011,-1.222001 4.41273,-1.911253 2.88368,-1.097129 7.13047,-2.243816 9.8046,-2.647316 0.57139,-0.08622 1.0877,-0.200442 1.14718,-0.253905 0.2181,-0.196024 -3.56396,-2.264471 -5.72635,-3.131868 -4.77704,-1.916181 -9.11685,-2.689588 -14.24772,-2.53926 -4.96587,0.14548 -9.37405,1.123894 -14.10768,3.131341 -0.18418,0.07811 -0.21755,-0.104058 -0.27768,-1.509132 -0.12355,-2.887386 -1.06268,-4.66751 -3.3826,-6.411431 -2.39089,-1.797266 -9.57078,-7.091238 -9.57078,-2.446527 z m 0.38917,1.677165 c 0,-4.014124 6.96569,0.933888 8.90314,2.85578 1.56519,1.55262 1.80945,2.395206 1.71098,5.902573 -0.0617,2.197372 -0.23327,3.596833 -0.62431,5.093056 l -0.12444,0.476622 -0.64518,-0.434085 c -0.80868,-0.544201 -1.82496,-0.92855 -2.91734,-1.10305 -1.23894,-0.197926 -3.67807,-0.633137 -6.69111,-0.184635 -18.56223,-2.774213 -37.51073,-6.615953 -52.763,-5.044481 -21.08074,2.487442 -43.65645,17.022822 -51.84,19.015491 -3.8513,0.93778 -4.91168,1.161953 -6.88277,1.456554 -1.29913,0.194179 -6.77439,0.3567 -7.98635,0.236992 -2.14532,-0.211909 -4.67003,-0.668121 -6.55806,-1.184954 -0.67852,-0.185743 -1.24999,-0.349282 -1.27003,-0.363546 -0.0571,-0.0407 0.35869,-12.179412 0.4193,-12.240023 0.0298,-0.02976 0.94905,0.06674 2.04308,0.214532 3.89505,0.52621 5.14641,0.601473 9.9758,0.597894 5.51559,-0.0041 7.53007,-0.175453 12.40172,-1.055231 2.95191,-0.533088 23.62387,-14.581934 44.53749,-17.199426 20.91362,-2.617491 42.06889,6.196372 48.05232,4.584529 3.76674,-1.0147 5.66881,-0.322981 8.40849,-0.505906 0.61695,-0.04121 1.85027,-0.545241 1.85027,-1.118684 z M 85.142083,70.717182 c -1.505462,0.03385 -3.096708,0.888753 -4.755667,2.558816 -1.826981,1.83921 -3.223522,4.055699 -4.549586,7.220947 -0.366194,0.874085 -0.568256,1.19745 -0.801327,1.282975 -0.189193,0.06944 -2.551888,0.01002 -6.013277,-0.151391 -6.244456,-0.291196 -5.693312,-0.326464 -7.559921,0.483493 -2.90104,1.258817 -5.676786,1.27508 -8.1808,0.04811 -1.057608,-0.518234 -0.998404,-0.403613 -1.189182,-2.300683 -0.07116,-0.707638 -0.179674,-1.336887 -0.241221,-1.398429 -0.136584,-0.136589 -1.056683,0.175441 -1.797373,0.609516 -0.612552,0.358974 -1.512287,1.324494 -1.763824,1.892755 -0.158881,0.358913 -0.207595,0.377549 -0.979666,0.377549 -0.755793,0 -0.812304,-0.02014 -0.812692,-0.291948 -2.25e-4,-0.160701 -0.204634,-1.431839 -0.454167,-2.824598 -0.249528,-1.392763 -0.453912,-2.605331 -0.454167,-2.694613 -3.17e-4,-0.123675 0.540453,-0.162224 2.272154,-0.162224 h 2.272677 v -0.38732 c 0,-0.44524 0.117626,-0.402391 -2.142693,-0.777287 -7.633758,-1.266148 -13.098038,-1.682855 -14.674397,-1.118904 -1.2701,0.454398 -2.020295,1.320691 -1.718117,1.983904 0.134933,0.296038 0.162485,0.299607 2.388135,0.299607 1.238454,0 2.252083,0.04366 2.252339,0.09723 3.06e-4,0.05357 0.22558,1.396322 0.500666,2.983918 0.275082,1.587581 0.469823,2.917003 0.4325,2.954326 -0.03732,0.03732 -1.285351,0.0679 -2.773343,0.0679 h -2.705447 v -0.380192 c 0,-0.256021 -0.111712,-0.46789 -0.342144,-0.649149 -0.319802,-0.251563 -0.509,-0.269222 -2.894349,-0.269222 -2.388779,0 -2.589203,0.01871 -3.130551,0.292209 -0.318109,0.160706 -0.710324,0.490733 -0.871608,0.73343 l -0.293265,0.441222 v 5.96915 c 0,5.839345 0.006,5.979999 0.275036,6.458723 0.151262,0.269135 0.495195,0.613078 0.764341,0.764341 0.455485,0.256016 0.679084,0.275035 3.231209,0.275035 2.56873,0 2.758297,-0.01641 3.001618,-0.259712 0.142848,-0.142848 0.259713,-0.402402 0.259713,-0.576753 0,-0.174337 0.05247,-0.349711 0.116778,-0.389436 0.06431,-0.03978 0.999488,-0.034 2.077961,0.01268 l 1.960656,0.08481 v 2.230144 2.230144 l -0.662093,0.310175 c -2.411439,1.129456 -3.172258,4.28368 -1.533172,6.35727 0.602725,0.76252 1.150413,1.16113 1.997907,1.45417 1.903369,0.65815 4.04056,-0.17393 5.047343,-1.96514 0.33762,-0.60068 0.404933,-0.87444 0.450998,-1.83807 0.0478,-0.99997 0.016,-1.21499 -0.271073,-1.84203 -0.178764,-0.39046 -0.54122,-0.949429 -0.80556,-1.242021 l -0.480584,-0.531843 0.389436,-0.55641 c 0.214261,-0.305937 1.000076,-1.496331 1.746124,-2.645471 l 1.356418,-2.089321 5.115249,-0.08323 c 15.067528,-0.244856 21.328181,-0.96984 30.688042,-3.553274 l 1.677958,-0.46315 1.243872,0.347431 1.243873,0.347425 v 0.704897 c 0,0.616596 0.05102,0.755931 0.406343,1.11124 0.760405,0.760405 2.119829,0.619592 2.578362,-0.267111 0.605211,-1.170337 -0.173585,-2.471625 -1.479008,-2.471625 -0.503039,0 -0.531844,-0.02071 -0.531844,-0.384942 0,-0.378571 0.02613,-0.393265 1.52604,-0.852325 2.131705,-0.652395 2.784647,-0.9256 3.591056,-1.503053 3.157155,-2.26079 3.734118,-8.134916 1.216658,-12.38851 -0.673572,-1.138087 -2.281292,-2.741318 -3.221437,-3.212715 -0.647016,-0.324418 -1.313604,-0.478784 -1.997907,-0.463416 z m 0.444126,1.238059 v 2.724206 c 0,1.498222 0.03824,3.781737 0.08507,5.074558 l 0.08508,2.350619 -2.065542,-0.0058 c -2.326534,-0.0066 -3.052535,0.140122 -3.47164,0.701456 -0.219962,0.294616 -0.23805,0.404083 -0.11255,0.679533 l 0.14954,0.328406 h 2.730014 2.729752 v 1.536608 1.536607 l -0.421932,0.137122 c -0.232124,0.0755 -1.006523,0.350968 -1.720755,0.611897 -3.118882,1.139365 -7.739462,2.417457 -11.312941,3.12923 -6.377809,1.270351 -11.275953,1.70804 -21.022418,1.879278 -3.642607,0.06399 -9.501011,0.119539 -13.018634,0.123118 l -6.395842,0.0066 V 91.55625 c 0,-0.666931 0.03865,-2.800037 0.08587,-4.740079 l 0.08587,-3.527383 H 34.7574 c 2.518068,0 2.768496,0.02004 2.831208,0.227217 0.03783,0.124994 0.218203,1.133117 0.400796,2.24018 0.182604,1.107069 0.363014,2.165178 0.400796,2.351417 0.0642,0.316314 0.03078,0.343815 -0.50833,0.417703 -1.348028,0.184767 -2.554691,1.018027 -2.550089,1.761182 0.0041,0.700525 -0.472895,0.668295 9.419388,0.632506 8.067617,-0.02919 9.21436,-0.05738 9.244218,-0.228009 0.07921,-0.452838 -0.214282,-0.547959 -3.097521,-1.002652 -1.59862,-0.2521 -2.918175,-0.467169 -2.932132,-0.478212 -0.01396,-0.01099 -0.08699,-0.398317 -0.162486,-0.860511 -0.0755,-0.462199 -0.304836,-1.789986 -0.509649,-2.950624 l -0.372529,-2.11023 h 2.17281 c 2.132728,0 2.188717,0.0073 3.025131,0.386532 1.510477,0.684886 2.607218,0.931178 4.480106,1.006615 2.425979,0.09772 4.204707,-0.235806 6.001644,-1.125509 1.418025,-0.70209 1.142616,-0.683128 7.439712,-0.511235 5.00812,0.136717 5.839677,0.13296 5.982361,-0.02618 0.09114,-0.101644 0.35965,-0.710705 0.596575,-1.353518 1.113188,-3.020193 3.376391,-6.749939 4.959631,-8.173404 0.929041,-0.83529 2.109379,-1.38444 3.155913,-1.468446 z M 37.667331,75.36717 h 3.243891 3.244157 l 0.07028,0.292209 c 0.102749,0.427489 1.074342,5.614015 1.054965,5.6315 -0.08477,0.07635 -6.416041,0.157086 -6.526623,0.08322 -0.138027,-0.0922 -1.086669,-5.081038 -1.086669,-5.71472 z m -15.68392,3.129491 c -0.05063,-0.0095 -0.102346,0.02515 -0.154559,0.109646 -0.243633,0.394206 -0.450093,2.507286 -0.454695,4.649983 l -0.0045,2.24018 H 20.83808 c -2.166429,0 -3.076632,2.890986 -1.312564,4.168873 0.419897,0.304177 0.653517,0.376225 1.217979,0.376225 h 0.69829 l -0.08243,1.52604 c -0.08409,1.553883 0.09377,4.150405 0.355617,5.190283 v 5.11e-4 c 0.07843,0.311483 0.208022,0.544692 0.287718,0.518106 0.345651,-0.115213 0.507325,-1.462643 0.521539,-4.345095 l 0.01427,-2.889334 h 0.351391 0.351126 l 0.03831,-2.272942 0.03831,-2.272682 h -0.3897 -0.389436 l 0.04254,-2.110191 c 0.05203,-2.58348 -0.243222,-4.822898 -0.597629,-4.889619 z m 85.261689,1.438854 c 0.0511,0.02296 0.0249,1.736415 -0.0581,3.807704 -0.083,2.071284 -0.15598,4.219043 -0.16222,4.772575 -0.006,0.553531 -0.0561,1.006349 -0.11071,1.006349 -0.0546,0 -1.69676,-1.147806 -3.64918,-2.550621 l -3.549835,-2.550621 0.824575,-0.507799 c 3.55012,-2.186579 6.62808,-4.012404 6.70549,-3.977587 z m -68.299816,3.353266 h 3.360409 3.360669 l 0.350335,1.915476 c 0.192737,1.053498 0.431467,2.339279 0.530519,2.857098 l 0.180186,0.941352 -0.471868,-0.01769 c -0.259538,-0.0097 -1.027173,-0.09158 -1.705698,-0.182036 -0.678526,-0.09047 -1.984011,-0.208382 -2.901221,-0.26209 C 40.125193,88.451681 39.97123,88.419613 39.87,88.171006 39.80905,88.021327 39.609014,87.022259 39.425342,85.950902 39.241665,84.879546 39.058392,83.842404 39.018206,83.645991 Z m -1.277953,10.648725 h 2.023537 c 1.198446,0 2.006087,0.04944 1.980473,0.121267 -0.02382,0.06672 -0.686221,1.115668 -1.471882,2.330808 -0.785661,1.215144 -1.486846,2.206805 -1.55827,2.204248 -0.07142,-0.0026 -0.319796,-0.05953 -0.551926,-0.126553 l -0.421932,-0.12206 v -2.203722 z m -0.795519,6.207994 c 1.206607,-0.0733 2.274497,0.69234 2.607162,1.94269 0.291411,1.09526 -0.296452,2.37388 -1.31864,2.86872 -2.170086,1.05053 -4.49119,-1.13742 -3.493297,-3.29277 0.340165,-0.73472 0.932839,-1.24058 1.680861,-1.43463 0.176305,-0.0457 0.351546,-0.0736 0.523914,-0.084 z m 0.121538,1.58363 c -0.493432,0 -0.885,0.41788 -0.882444,0.94163 0.0021,0.48349 0.0879,0.64446 0.452583,0.85126 0.381439,0.2163 0.637916,0.18752 1.021411,-0.11414 0.684793,-0.53865 0.28298,-1.67875 -0.59155,-1.67875 z"
       sodipodi:nodetypes="csccsssscsscccccccccccssssssssccccsssscssssssscscssssssssssssscccsccsssscccssssssscssssssssssssscscssscscssscssssccsscsssccccccssssscccsccscccssssscssscccscccsccccccccssccsscssscscscscsccscsssssscccccccsscccccssscccccccccccccccccscsccccccccccccsssscccscscccccsssscssscsss" /></g></svg>
