<?xml version="1.0" encoding="UTF-8" standalone="no"?>
<!-- Created with Inkscape (http://www.inkscape.org/) -->

<svg
   width="210mm"
   height="297mm"
   viewBox="0 0 210 297"
   version="1.1"
   id="svg5"
   xml:space="preserve"
   xmlns:inkscape="http://www.inkscape.org/namespaces/inkscape"
   xmlns:sodipodi="http://sodipodi.sourceforge.net/DTD/sodipodi-0.dtd"
   xmlns="http://www.w3.org/2000/svg"
   xmlns:svg="http://www.w3.org/2000/svg"><sodipodi:namedview
     id="namedview7"
     pagecolor="#ffffff"
     bordercolor="#000000"
     borderopacity="0.25"
     inkscape:showpageshadow="2"
     inkscape:pageopacity="0.0"
     inkscape:pagecheckerboard="0"
     inkscape:deskcolor="#d1d1d1"
     inkscape:document-units="mm"
     showgrid="false" /><defs
     id="defs2" /><g
     inkscape:label="Layer 1"
     inkscape:groupmode="layer"
     id="layer1"><path
       id="path891"
       style="fill:#000000;stroke-width:0.129861"
       d="m -32.917757,-37.12036 c -0.191133,0.154007 -0.263936,0.305605 -0.305684,0.522066 -0.05739,0.297573 0.0196,0.536527 0.305684,0.787327 z M 159.30783,56.643139 c -3.9204,-10e-4 -4.86051,0.157035 -11.10315,1.866865 -8.86111,2.427017 -25.1849,6.247836 -29.93322,7.006415 -3.84964,0.614996 -5.40857,0.718722 -10.84344,0.721278 -5.43196,0.0026 -6.84583,-0.08856 -11.338835,-0.729995 -1.554722,-0.221976 -1.923958,-0.238531 -2.255503,-0.101189 -0.410444,0.17 -0.883022,0.802016 -0.884555,1.180992 -4.55e-4,0.204777 -0.994008,0.838132 -7.268506,4.634395 l -1.749028,1.058135 -2.749835,-0.08534 -2.750096,-0.08561 -0.192072,0.377283 c -0.105658,0.207507 -0.23258,0.508786 -0.282173,0.669492 l -0.09036,0.292213 h 3.173613 3.173613 l 2.647321,1.915476 c 1.456084,1.053493 3.298551,2.380825 4.094366,2.949566 1.424605,1.018114 1.448379,1.043288 1.526567,1.632782 0.112018,0.84437 0.527411,1.18472 2.024329,1.658141 3.956104,1.251153 8.888004,1.798713 13.180864,1.463425 3.62295,-0.282965 4.58519,-0.465931 14.73939,-2.800558 20.98333,-4.824437 31.60755,-6.805794 39.02341,-7.278019 1.43195,-0.09119 3.47912,0.09223 4.60084,0.412156 2.663,0.759485 5.11823,3.276766 5.13321,5.2632 0.009,1.234788 -0.46078,1.520917 -2.85155,1.736876 l -0.90886,0.08217 0.83145,-0.498289 c 1.30399,-0.781638 1.60204,-1.535739 1.01613,-2.570172 -0.61473,-1.085339 -1.85914,-1.688371 -4.44734,-2.155111 -1.30285,-0.234957 -4.72018,-0.57367 -4.81643,-0.477414 -0.0247,0.02469 0.30028,1.91137 0.72206,4.192646 0.42179,2.281271 0.80739,4.440027 0.85708,4.797146 0.2427,1.744944 1.48163,3.15374 3.15829,3.591322 0.99039,0.258465 2.43443,0.295092 4.10176,0.104093 2.43346,-0.278762 4.17832,-0.743696 7.27775,-1.939781 4.89785,-1.890107 8.33309,-2.442739 14.28471,-2.298045 4.77912,0.116174 8.3549,0.619239 12.07384,1.698832 0.85534,0.248291 1.57097,0.435659 1.59024,0.416385 0.0193,-0.01928 -0.79047,-0.789951 -1.79949,-1.712836 -1.00903,-0.922885 -1.90009,-1.738977 -1.97995,-1.813494 -1.02469,-0.956209 -4.69769,-4.010943 -6.60561,-5.493586 -1.33919,-1.040681 -2.43406,-1.923851 -2.43253,-1.962502 0.003,-0.09678 2.6011,-1.222001 4.41273,-1.911253 2.88368,-1.097129 7.13047,-2.243816 9.8046,-2.647316 0.57139,-0.08622 1.0877,-0.200442 1.14718,-0.253905 0.2181,-0.196024 -3.56396,-2.264471 -5.72635,-3.131868 -4.77704,-1.916181 -9.11685,-2.689588 -14.24772,-2.53926 -4.96587,0.14548 -9.37405,1.123894 -14.10768,3.131341 -0.18418,0.07811 -0.21755,-0.104058 -0.27768,-1.509132 -0.12355,-2.887386 -1.06268,-4.66751 -3.3826,-6.411431 -2.39089,-1.797266 -4.92607,-2.444993 -9.57078,-2.446527 z m 0.38917,1.677165 c 4.0141,-0.01385 6.96569,0.933888 8.90314,2.85578 1.56519,1.55262 1.80945,2.395206 1.71098,5.902573 -0.0617,2.197372 -0.23327,3.596833 -0.62431,5.093056 l -0.12444,0.476622 -0.64518,-0.434085 c -0.80868,-0.544201 -1.82496,-0.92855 -2.91734,-1.10305 -1.23894,-0.197926 -6.9905,0.141197 -10.00354,0.589699 -0.71424,0.106317 -2.74629,0.398357 -4.51551,0.649148 -8.5371,1.210181 -17.75111,3.132574 -34.1182,7.117912 -3.8513,0.937778 -4.91168,1.161953 -6.88277,1.456554 -1.29913,0.194179 -6.77439,0.3567 -7.98635,0.236992 -2.14532,-0.211909 -4.670032,-0.668121 -6.558058,-1.184954 -0.678526,-0.185743 -1.249987,-0.349282 -1.270029,-0.363546 -0.05714,-0.0407 0.358688,-12.179412 0.419294,-12.240023 0.02976,-0.02976 0.949056,0.06674 2.043082,0.214532 3.895051,0.52621 5.146411,0.601473 9.975801,0.597894 5.51559,-0.0041 7.53007,-0.175461 12.40172,-1.055231 5.90381,-1.066177 17.96609,-3.961595 29.93295,-7.185281 3.76673,-1.014709 5.73333,-1.376935 8.47301,-1.55986 0.61695,-0.04121 1.21231,-0.06275 1.78575,-0.06473 z m -89.009146,0.867909 c -1.505462,0.03385 -3.096708,0.888753 -4.755667,2.558816 -1.826981,1.83921 -3.223522,4.055699 -4.549586,7.220947 -0.366194,0.874085 -0.568256,1.19745 -0.801327,1.282975 -0.189193,0.06944 -2.551888,0.01002 -6.013277,-0.151391 -6.244456,-0.291196 -5.693312,-0.326464 -7.559921,0.483493 -2.90104,1.258817 -5.676786,1.27508 -8.1808,0.04811 -1.057608,-0.518234 -0.998404,-0.403613 -1.189182,-2.300683 -0.07116,-0.707638 -0.179674,-1.336887 -0.241221,-1.398429 -0.136584,-0.136589 -1.056683,0.175441 -1.797373,0.609516 -0.612552,0.358974 -1.512287,1.324494 -1.763824,1.892755 -0.158881,0.358913 -0.207595,0.377549 -0.979666,0.377549 -0.755793,0 -0.812304,-0.02014 -0.812692,-0.291948 -2.25e-4,-0.160701 -0.204634,-1.431839 -0.454167,-2.824598 -0.249528,-1.392763 -0.453912,-2.605331 -0.454167,-2.694613 -3.17e-4,-0.123675 0.540453,-0.162224 2.272154,-0.162224 h 2.272677 v -0.38732 c 0,-0.44524 0.117626,-0.402391 -2.142693,-0.777287 -7.633758,-1.266148 -13.098038,-1.682855 -14.674397,-1.118904 -1.2701,0.454398 -2.020295,1.320691 -1.718117,1.983904 0.134933,0.296038 0.162485,0.299607 2.388135,0.299607 1.238454,0 2.252083,0.04366 2.252339,0.09723 3.06e-4,0.05357 0.22558,1.396322 0.500666,2.983918 0.275082,1.587581 0.469823,2.917003 0.4325,2.954326 -0.03732,0.03732 -1.285351,0.0679 -2.773343,0.0679 H 17.239458 V 69.56167 c 0,-0.256021 -0.111712,-0.46789 -0.342144,-0.649149 -0.319802,-0.251563 -0.509,-0.269222 -2.894349,-0.269222 -2.388779,0 -2.589203,0.01871 -3.130551,0.292209 -0.318109,0.160706 -0.710324,0.490733 -0.871608,0.73343 L 9.7075404,70.11016 v 5.96915 c 0,5.839345 0.006,5.979999 0.275036,6.458723 0.1512626,0.269135 0.4951956,0.613078 0.7643416,0.764341 0.455485,0.256016 0.679084,0.275035 3.231209,0.275035 2.56873,0 2.758297,-0.01641 3.001618,-0.259712 0.142848,-0.142848 0.259713,-0.402402 0.259713,-0.576753 0,-0.174337 0.05247,-0.349711 0.116778,-0.389436 0.06431,-0.03978 0.999488,-0.034 2.077961,0.01268 l 1.960656,0.08481 v 2.230144 2.230144 l -0.662093,0.310175 c -2.411439,1.129456 -3.172258,4.283682 -1.533172,6.357266 0.602725,0.762522 1.150413,1.161135 1.997907,1.454177 1.903369,0.658152 4.04056,-0.173933 5.047343,-1.965145 0.33762,-0.600676 0.404933,-0.874438 0.450998,-1.838065 0.0478,-0.999969 0.016,-1.214992 -0.271073,-1.842028 -0.178764,-0.390467 -0.54122,-0.949434 -0.80556,-1.242026 l -0.480584,-0.531843 0.389436,-0.55641 c 0.214261,-0.305937 1.000076,-1.496331 1.746124,-2.645471 l 1.356418,-2.089321 5.115249,-0.08323 c 15.067528,-0.244856 21.328181,-0.96984 30.688042,-3.553274 l 1.677958,-0.46315 1.243872,0.347431 1.243873,0.347425 v 0.704897 c 0,0.616596 0.05102,0.755931 0.406343,1.11124 0.760405,0.760405 2.119829,0.619592 2.578362,-0.267111 0.605211,-1.170337 -0.173585,-2.471625 -1.479008,-2.471625 -0.503039,0 -0.531844,-0.02071 -0.531844,-0.384942 0,-0.378571 0.02613,-0.393265 1.52604,-0.852325 2.131705,-0.652395 2.784647,-0.9256 3.591056,-1.503053 3.157155,-2.26079 3.734118,-8.134916 1.216658,-12.38851 -0.673572,-1.138087 -2.281292,-2.741318 -3.221437,-3.212715 -0.647016,-0.324418 -1.313604,-0.478784 -1.997907,-0.463416 z m 0.444126,1.238059 v 2.724206 c 0,1.498222 0.03824,3.781737 0.08507,5.074558 l 0.08508,2.350619 -2.065542,-0.0058 c -2.326534,-0.0066 -3.052535,0.140122 -3.47164,0.701456 -0.219962,0.294616 -0.23805,0.404083 -0.11255,0.679533 l 0.14954,0.328406 h 2.730014 2.729752 v 1.536608 1.536607 l -0.421932,0.137122 c -0.232124,0.0755 -1.006523,0.350968 -1.720755,0.611897 -3.118882,1.139365 -7.739462,2.417457 -11.312941,3.12923 -6.377809,1.270351 -11.275953,1.70804 -21.022418,1.879278 -3.642607,0.06399 -9.501011,0.119539 -13.018634,0.123118 l -6.395842,0.0066 v -1.212429 c 0,-0.666931 0.03865,-2.800037 0.08587,-4.740079 l 0.08587,-3.527383 h 2.762249 c 2.518068,0 2.768496,0.02004 2.831208,0.227217 0.03783,0.124994 0.218203,1.133117 0.400796,2.24018 0.182604,1.107069 0.363014,2.165178 0.400796,2.351417 0.0642,0.316314 0.03078,0.343815 -0.50833,0.417703 -1.348028,0.184767 -2.554691,1.018027 -2.550089,1.761182 0.0041,0.700525 -0.472895,0.668295 9.419388,0.632506 8.067617,-0.02919 9.21436,-0.05738 9.244218,-0.228009 0.07921,-0.452838 -0.214282,-0.547959 -3.097521,-1.002652 -1.59862,-0.2521 -2.918175,-0.467169 -2.932132,-0.478212 -0.01396,-0.01099 -0.08699,-0.398317 -0.162486,-0.860511 -0.0755,-0.462199 -0.304836,-1.789986 -0.509649,-2.950624 l -0.372529,-2.11023 h 2.17281 c 2.132728,0 2.188717,0.0073 3.025131,0.386532 1.510477,0.684886 2.607218,0.931178 4.480106,1.006615 2.425979,0.09772 4.204707,-0.235806 6.001644,-1.125509 1.418025,-0.70209 1.142616,-0.683128 7.439712,-0.511235 5.00812,0.136717 5.839677,0.13296 5.982361,-0.02618 0.09114,-0.101644 0.35965,-0.710705 0.596575,-1.353518 1.113188,-3.020193 3.376391,-6.749939 4.959631,-8.173404 0.929041,-0.83529 2.109379,-1.38444 3.155913,-1.468446 z m 88.07678,1.910721 c -0.6452,-0.008 -0.70909,0.135378 -0.63065,0.588912 0.0306,0.176754 -0.0916,1.213283 -0.27134,2.303326 -0.3338,2.024202 -0.32986,2.375191 0.0269,2.375191 0.24304,0 0.26646,-0.06428 0.45469,-1.247304 l 0.1469,-0.922598 0.50542,0.09247 c 0.86519,0.158211 1.08277,0.360238 1.99236,1.849957 0.11993,0.196413 0.30629,0.357201 0.41401,0.357201 0.61022,0 0.13299,-1.209797 -0.82854,-2.100416 -0.30898,-0.286186 -0.54269,-0.536517 -0.51943,-0.556149 0.0233,-0.01963 0.28899,-0.18924 0.5905,-0.377017 0.63311,-0.394298 0.98658,-0.976788 0.87134,-1.43595 -0.15114,-0.602179 -0.48365,-0.755528 -1.89698,-0.875041 -0.36046,-0.03047 -0.64016,-0.0499 -0.85523,-0.05258 z m -2.57757,0.202646 c -0.33981,0 -0.95724,0.09524 -1.37201,0.211628 -0.5964,0.167337 -0.79385,0.178733 -0.94427,0.0539 -0.4535,-0.376378 -0.72246,0.224814 -1.22458,2.737943 -0.44263,2.215313 -0.49017,2.7816 -0.24307,2.890122 0.66606,0.292556 3.34376,-0.844478 3.34376,-1.41983 0,-0.294821 -0.46203,-0.222375 -1.20318,0.188907 -0.37389,0.207482 -0.8696,0.416835 -1.10173,0.464996 -0.39762,0.08251 -0.42188,0.06609 -0.42035,-0.280056 0.004,-0.81536 0.0912,-0.90136 1.56858,-1.547175 1.0577,-0.462358 1.4164,-0.679216 1.4164,-0.856022 0,-0.326525 -0.23539,-0.299469 -1.4415,0.165655 -0.57392,0.221332 -1.07612,0.369599 -1.11626,0.329464 -0.0401,-0.04013 0.0367,-0.41098 0.17094,-0.824313 0.28032,-0.863082 0.41323,-0.953555 2.05868,-1.402395 0.71387,-0.194741 1.05582,-0.351909 1.08455,-0.49855 0.0343,-0.174838 -0.0715,-0.214271 -0.57596,-0.214271 z m 3.58788,0.525238 c 0.31599,0.0073 0.64167,0.0517 0.78548,0.128665 0.13816,0.07393 0.251,0.214803 0.251,0.313083 0,0.250398 -0.69367,0.806322 -1.40927,1.129206 -0.33194,0.14977 -0.64736,0.298017 -0.70093,0.32946 -0.13047,0.0766 -0.12375,-0.04131 0.0542,-0.942942 0.0834,-0.422597 0.2149,-0.811204 0.29221,-0.863681 0.10491,-0.07122 0.41138,-0.101108 0.72735,-0.09379 z m 4.48803,0.253899 c -0.37143,0 -0.45931,0.218771 -0.86051,2.142692 -0.40781,1.95559 -0.4506,2.409993 -0.23937,2.54375 0.54669,0.346183 2.86197,-0.09599 2.94931,-0.563282 0.0548,-0.293031 -0.4643,-0.302352 -1.26739,-0.0227 -0.66596,0.231895 -1.24151,0.152209 -1.12339,-0.155614 0.0422,-0.109978 0.0766,-0.333345 0.0766,-0.496177 0,-0.266462 0.11236,-0.320416 1.12286,-0.541088 1.24308,-0.271477 1.62669,-0.46406 1.39447,-0.699876 -0.10814,-0.109815 -0.41697,-0.101292 -1.21296,0.03354 l -1.06791,0.180978 0.0761,-0.380714 c 0.21354,-1.067747 0.46457,-1.219015 2.06713,-1.246777 0.76156,-0.01319 0.8801,-0.04668 0.84334,-0.237523 -0.0574,-0.298201 -0.77056,-0.448564 -1.69698,-0.357727 -0.48128,0.04719 -0.74664,0.02469 -0.74664,-0.06315 0,-0.07498 -0.14166,-0.136329 -0.31467,-0.136329 z m -13.18244,0.129989 c -0.34921,0 -0.46473,0.266518 -0.65338,1.50649 -0.088,0.578619 -0.19817,1.106833 -0.24465,1.173854 -0.10184,0.14681 -2.74397,1.131379 -2.82328,1.052062 -0.0306,-0.03063 0.0618,-0.626321 0.20529,-1.323927 0.14354,-0.697601 0.26077,-1.463037 0.26077,-1.700944 0,-0.492328 -0.22991,-0.712008 -0.44175,-0.422197 -0.19635,0.268608 -1.29652,5.889382 -1.20134,6.137453 0.19485,0.507758 0.52713,0.115244 0.72683,-0.858665 l 0.15033,-0.734223 1.07584,-0.462092 c 0.5917,-0.254191 1.2394,-0.524338 1.43912,-0.600266 l 0.36301,-0.137919 -0.0835,1.009524 c -0.0934,1.128833 0.0226,1.491463 0.40265,1.256818 0.17205,-0.106241 0.2584,-0.404385 0.33818,-1.16884 0.0589,-0.56438 0.1904,-1.181104 0.29221,-1.370686 0.10179,-0.189588 0.18494,-0.551323 0.18494,-0.803709 0,-0.252387 0.0909,-0.850378 0.20185,-1.328943 0.22561,-0.97282 0.18601,-1.22379 -0.19313,-1.22379 z M 23.213102,63.838201 h 3.243891 3.244157 l 0.07028,0.292209 c 0.102749,0.427489 1.074342,5.614015 1.054965,5.6315 -0.08477,0.07635 -6.416041,0.157086 -6.526623,0.08322 -0.138027,-0.0922 -1.086669,-5.081038 -1.086669,-5.71472 z M 142.59167,65.02289 c -1.44382,0.07834 -4.91112,1.872626 -4.67244,2.494611 0.12786,0.333197 0.39335,0.2639 1.24862,-0.326294 0.43275,-0.29862 0.82278,-0.506961 0.86659,-0.46315 0.0438,0.04382 -0.0777,1.020398 -0.27001,2.170433 -0.19236,1.150051 -0.31537,2.181206 -0.27319,2.291174 0.11395,0.296953 0.51329,0.160798 0.61718,-0.210304 0.0498,-0.177874 0.24677,-1.316866 0.43778,-2.53107 0.19102,-1.214203 0.40786,-2.245052 0.48165,-2.290913 0.0738,-0.04581 0.49157,-0.154177 0.92841,-0.240688 1.24922,-0.247427 1.26761,-0.255761 1.22379,-0.563547 -0.025,-0.175364 -0.14853,-0.296498 -0.3284,-0.322062 -0.0766,-0.01089 -0.16373,-0.0134 -0.25998,-0.0082 z m -5.92556,1.31547 c -0.18842,0.03686 -0.38185,0.304136 -0.5934,0.814538 -0.16095,0.388326 -0.52858,1.070927 -0.81692,1.517057 l -0.52418,0.811107 -0.49987,-0.993404 c -0.5128,-1.019156 -0.86515,-1.30844 -1.22723,-1.007939 -0.26772,0.222191 -0.23353,0.563266 0.0853,0.851262 0.4043,0.36512 1.05068,1.714011 0.95932,2.001874 -0.0426,0.134391 -0.66499,0.802804 -1.3831,1.485614 -0.86899,0.826256 -1.28073,1.306575 -1.23119,1.435684 0.14702,0.383158 0.48918,0.173897 1.83278,-1.120223 l 1.36461,-1.314151 0.25522,0.307797 c 0.14036,0.16926 0.389,0.558143 0.55272,0.864212 0.24338,0.455021 0.35699,0.549692 0.62246,0.519425 0.61611,-0.07029 0.39237,-0.768927 -0.66395,-2.07294 l -0.28164,-0.34743 0.71415,-1.084292 c 0.39271,-0.596294 0.80982,-1.269686 0.92709,-1.496448 0.23346,-0.451478 0.28102,-1.017484 0.0951,-1.132376 -0.0622,-0.03845 -0.12451,-0.05165 -0.18732,-0.03937 z M 7.5291814,66.967692 c -0.05063,-0.0095 -0.102346,0.02515 -0.154559,0.109646 -0.243633,0.394206 -0.450093,2.507286 -0.454695,4.649983 l -0.0045,2.24018 h -0.531577 c -2.166429,0 -3.076632,2.890986 -1.312564,4.168873 0.419897,0.304177 0.653517,0.376225 1.217979,0.376225 h 0.69829 l -0.08243,1.52604 c -0.08409,1.553883 0.09377,4.150405 0.355617,5.190283 v 5.11e-4 c 0.07843,0.311483 0.208022,0.544692 0.287718,0.518106 0.345651,-0.115213 0.507325,-1.462643 0.521539,-4.345095 l 0.01427,-2.889334 h 0.351391 0.351126 l 0.03831,-2.272942 0.03831,-2.272682 h -0.3897 -0.389436 l 0.04254,-2.110191 c 0.05203,-2.58348 -0.243222,-4.822898 -0.597629,-4.889619 z M 131.84149,67.967967 c -0.25497,-0.06398 -0.86502,0.101532 -1.66607,0.466586 -0.71037,0.323748 -1.00862,0.403281 -1.11415,0.297756 -0.10552,-0.105526 -0.21507,-0.07291 -0.40952,0.121532 -0.36554,0.36556 -1.3835,5.298948 -1.15113,5.578927 0.23052,0.277745 0.51951,0.227053 1.50094,-0.26394 1.43644,-0.718615 2.48105,-1.759597 1.76568,-1.759597 -0.12692,0 -0.55072,0.240448 -0.94163,0.534482 -0.67038,0.504241 -1.15764,0.764076 -1.4333,0.764076 -0.14286,0 -0.16083,-0.911576 -0.0219,-1.110974 0.0525,-0.07533 0.65043,-0.480748 1.32895,-0.900937 1.18765,-0.735465 1.55827,-1.035056 1.55827,-1.259456 0,-0.235606 -0.48404,-0.0732 -1.45972,0.489567 -0.56689,0.32698 -1.05651,0.568348 -1.08826,0.536599 -0.11341,-0.113409 0.11486,-1.118659 0.3358,-1.478748 0.14962,-0.243817 0.61244,-0.55345 1.381,-0.923918 1.55175,-0.747966 1.54559,-0.74409 1.54559,-0.95034 0,-0.0734 -0.0455,-0.12029 -0.13052,-0.141615 z m -39.050621,0.438579 c 0.05108,0.02296 0.02485,1.736415 -0.05812,3.807704 -0.08301,2.071284 -0.155982,4.219043 -0.16222,4.772575 -0.0063,0.553531 -0.05608,1.006349 -0.110704,1.006349 -0.05462,0 -1.696762,-1.147806 -3.649181,-2.550621 l -3.549838,-2.550621 0.824579,-0.507799 c 3.550119,-2.186579 6.628079,-4.012404 6.705489,-3.977587 z m 34.723491,0.296171 c -0.18881,-0.03303 -0.51145,0.01784 -1.01666,0.143726 -1.16861,0.291227 -2.13351,0.720261 -3.13055,1.391828 -0.78854,0.531128 -1.04328,0.859836 -0.87583,1.130791 0.13089,0.211776 0.40983,0.152163 0.80238,-0.171734 0.49726,-0.410275 1.18829,-0.802482 1.27003,-0.720746 0.0367,0.03671 -0.0859,1.009437 -0.27239,2.161451 -0.18647,1.152024 -0.3025,2.189683 -0.25787,2.30597 0.15102,0.393516 0.53026,0.155798 0.62855,-0.39393 0.35285,-1.973438 0.62193,-3.766885 0.62193,-4.143769 0,-0.414969 0.0406,-0.457158 0.62669,-0.651792 0.34463,-0.114472 0.88529,-0.252003 1.20134,-0.305686 0.45873,-0.07793 0.58294,-0.156074 0.61612,-0.387319 0.03,-0.208995 -0.025,-0.325778 -0.21374,-0.35879 z m -29.462141,2.166471 c -0.03993,-0.0062 -0.08138,-0.0041 -0.12523,0.0041 -0.335431,0.06461 -0.356766,0.392258 -0.0679,1.039111 0.13794,0.308876 0.352277,0.883011 0.476356,1.275842 0.124084,0.392831 0.39507,1.021073 0.602123,1.396051 l 0.37649,0.681644 -0.845188,0.828807 c -0.849487,0.832943 -0.972237,1.070324 -0.695648,1.346913 0.213934,0.213929 0.466806,0.04433 1.364874,-0.915732 1.323404,-1.414722 3.290394,-4.389085 3.290394,-4.975486 0,-0.337496 -0.31582,-0.62585 -0.57596,-0.526025 -0.1043,0.04003 -0.25012,0.294673 -0.32418,0.566185 -0.12785,0.468774 -0.75245,1.563414 -1.41772,2.484836 -0.426452,0.590645 -0.578706,0.411717 -1.130525,-1.326564 -0.442649,-1.39443 -0.648377,-1.836373 -0.927885,-1.87981 z m 19.178281,0.126553 c -0.24275,-10e-4 -0.54943,0.01345 -0.94215,0.03753 -1.61636,0.09901 -1.85885,0.225489 -1.72683,0.900937 0.0397,0.203064 -0.0734,1.272181 -0.25152,2.375716 -0.33522,2.077016 -0.38514,2.669608 -0.23726,2.817471 0.30866,0.308661 0.52706,-0.107816 0.70621,-1.346913 l 0.15932,-1.101199 0.66738,0.0069 c 0.82377,0.0086 1.3042,0.321284 1.88588,1.227757 0.22968,0.357922 0.4874,0.650734 0.5728,0.650734 0.21811,0 0.46785,-0.273747 0.46632,-0.51282 -10e-4,-0.349174 -0.95222,-1.46703 -1.47928,-1.738726 l -0.50568,-0.260766 0.31096,-0.245975 c 1.17373,-0.928222 1.63989,-1.649285 1.42749,-2.20795 -0.17284,-0.454591 -0.32538,-0.599331 -1.05364,-0.602649 z m -4.26029,0.395776 c -0.056,-0.01063 -0.11497,0.02331 -0.20369,0.09696 -0.15127,0.125536 -0.20899,0.397918 -0.20899,0.987862 0,1.677298 -0.94508,3.621701 -1.9913,4.096738 -0.66277,0.300915 -0.79151,0.306795 -1.051,0.04729 -0.30637,-0.30636 -0.25494,-1.38537 0.12945,-2.711255 0.37695,-1.300194 0.34377,-1.759596 -0.12734,-1.759596 -0.34629,0 -0.46606,0.214026 -0.46606,0.833827 0,0.232723 -0.11686,0.880057 -0.25971,1.438588 -0.44454,1.738129 -0.31681,2.602939 0.43937,2.975989 0.81568,0.402401 1.54206,0.158875 2.46344,-0.826164 0.72412,-0.774143 1.06966,-1.444902 1.39077,-2.700427 0.29679,-1.160454 0.32138,-1.966183 0.0708,-2.308874 -0.0768,-0.105008 -0.12972,-0.160322 -0.18574,-0.170941 z m 3.98869,0.342675 c 0.30961,0.01299 0.53192,0.09423 0.58811,0.240689 0.10501,0.273629 -0.9128,1.277447 -1.79579,1.770956 -0.66248,0.370274 -0.77774,0.413077 -0.68402,0.254166 0.0316,-0.05357 0.12734,-0.518035 0.21295,-1.032245 0.14723,-0.884448 0.17803,-0.942129 0.56725,-1.064214 0.40521,-0.127101 0.80189,-0.182338 1.1115,-0.169352 z m -92.467845,0.02562 h 3.360409 3.360669 l 0.350335,1.915476 c 0.192737,1.053498 0.431467,2.339279 0.530519,2.857098 l 0.180186,0.941352 -0.471868,-0.01769 c -0.259538,-0.0097 -1.027173,-0.09158 -1.705698,-0.182036 -0.678526,-0.09047 -1.984011,-0.208382 -2.901221,-0.26209 -1.523422,-0.08921 -1.677385,-0.121278 -1.778615,-0.369885 -0.06095,-0.149679 -0.260986,-1.148747 -0.444658,-2.220104 -0.183677,-1.071356 -0.36695,-2.108498 -0.407136,-2.304911 z m 80.167845,0.395249 -0.70886,0.76566 c -0.87524,0.945366 -1.29857,1.795268 -1.36725,2.744815 -0.0633,0.874801 0.18507,1.442571 0.7934,1.813494 0.26669,0.162613 0.6485,0.252841 1.065,0.252841 2.09974,-0.0026 3.71666,-2.698601 2.77943,-4.634661 -0.34419,-0.710991 -0.62126,-0.85868 -1.69646,-0.904898 z m 1.22458,0.655754 c 0.12185,0.0099 0.28118,0.09424 0.48349,0.253373 0.94524,0.743533 0.27094,3.070275 -1.09116,3.765167 -0.73061,0.372722 -1.23254,0.331289 -1.70464,-0.140823 -0.33972,-0.339715 -0.38467,-0.462087 -0.31916,-0.865797 0.0998,-0.614884 0.62138,-1.664654 1.13502,-2.284303 0.35209,-0.4248 0.46186,-0.482368 0.78389,-0.41163 0.27508,0.06042 0.3953,0.02781 0.45311,-0.122857 0.0531,-0.138425 0.1376,-0.203008 0.25945,-0.19313 z m -82.670378,9.597722 h 2.023537 c 1.198446,0 2.006087,0.04944 1.980473,0.121267 -0.02382,0.06672 -0.686221,1.115668 -1.471882,2.330808 -0.785661,1.215144 -1.486846,2.206805 -1.55827,2.204248 -0.07142,-0.0026 -0.319796,-0.05953 -0.551926,-0.126553 l -0.421932,-0.12206 v -2.203722 z m -0.795519,6.207993 c 1.206607,-0.07326 2.274497,0.69234 2.607162,1.94269 0.291411,1.095258 -0.296452,2.373882 -1.31864,2.86872 -2.170086,1.050528 -4.49119,-1.137422 -3.493297,-3.292768 0.340165,-0.734719 0.932839,-1.240585 1.680861,-1.434626 0.176305,-0.04571 0.351546,-0.07355 0.523914,-0.08402 z m 0.121538,1.583634 c -0.493432,0 -0.885,0.417877 -0.882444,0.941623 0.0021,0.483498 0.0879,0.64446 0.452583,0.851267 0.381439,0.216296 0.637916,0.187516 1.021411,-0.11414 0.684793,-0.538649 0.28298,-1.67875 -0.59155,-1.67875 z" /></g></svg>
