<?xml version="1.0" encoding="UTF-8" standalone="no"?>
<!-- Created with Inkscape (http://www.inkscape.org/) -->

<svg
   width="171.43578mm"
   height="264.39459mm"
   viewBox="0 0 171.43578 264.39459"
   version="1.1"
   id="svg5"
   xml:space="preserve"
   xmlns:inkscape="http://www.inkscape.org/namespaces/inkscape"
   xmlns:sodipodi="http://sodipodi.sourceforge.net/DTD/sodipodi-0.dtd"
   xmlns="http://www.w3.org/2000/svg"
   xmlns:svg="http://www.w3.org/2000/svg"><sodipodi:namedview
     id="namedview7"
     pagecolor="#ffffff"
     bordercolor="#000000"
     borderopacity="0.25"
     inkscape:showpageshadow="2"
     inkscape:pageopacity="0.0"
     inkscape:pagecheckerboard="0"
     inkscape:deskcolor="#d1d1d1"
     inkscape:document-units="mm"
     showgrid="false" /><defs
     id="defs2" /><g
     inkscape:label="Layer 1"
     inkscape:groupmode="layer"
     id="layer1"
     transform="translate(-22.050114,-13.845049)"><path
       style="fill:#000000;stroke-width:0.2817"
       d="m 104.00561,277.9388 c -3.08905,-0.70603 -6.749482,-2.32899 -8.219312,-3.64427 -1.083798,-0.96985 -1.789338,-3.83339 -1.960448,-7.95679 -0.19272,-4.64442 0.0139,-6.17182 0.91482,-6.76211 0.632028,-0.41412 0.731748,-0.3968 1.621168,0.28159 2.53595,1.93426 7.679952,3.54215 11.331742,3.54203 3.57749,-1.2e-4 8.02791,-1.33475 10.90339,-3.2698 1.31612,-0.88569 1.47717,-0.92884 2.05455,-0.55053 0.80126,0.52501 0.98624,1.50431 0.98624,5.22104 0,4.56041 -0.82437,8.39004 -2.05153,9.53051 -0.88713,0.82445 -4.223,2.43398 -6.54034,3.15567 -2.51825,0.78425 -6.67817,0.99257 -9.04028,0.45266 z m -0.70096,-17.63232 c -1.17443,-0.28896 -2.88576,-0.86768 -3.802962,-1.28604 l -1.66764,-0.76066 2.535312,-0.80865 c 3.93682,-1.25568 6.5258,-1.72045 8.42355,-1.51216 1.49607,0.16419 8.26536,1.95051 8.57861,2.26377 0.22982,0.22982 -3.14321,1.58216 -5.30597,2.12732 -2.67384,0.67398 -5.96184,0.66513 -8.7609,-0.0236 z M 87.587512,246.43153 C 81.783574,234.96947 75.0966,221.76912 65.720348,203.26488 52.967923,178.09771 46.069227,164.40113 46.21089,164.53105 c 0.08447,0.0775 1.285159,1.72541 2.668195,3.6621 2.117803,2.9656 3.683899,5.83279 9.924566,18.1697 4.075478,8.05663 9.692233,19.1486 12.481685,24.6488 2.789446,5.50021 7.128659,14.05686 9.642691,19.0148 2.514031,4.95793 6.647211,13.10842 9.184847,18.1122 3.814126,7.52082 4.541376,9.14362 4.195616,9.36223 -0.23003,0.14545 -0.54501,0.26461 -0.69995,0.26479 -0.15493,1.9e-4 -2.864399,-5.10017 -6.021028,-11.33414 z m 33.490248,11.0688 c -0.34714,-0.21948 0.31276,-1.70696 3.84097,-8.65798 2.34308,-4.61614 6.8261,-13.46359 9.9623,-19.661 3.13616,-6.19742 7.76157,-15.32452 10.27865,-20.28245 2.51708,-4.95793 7.78353,-15.35269 11.70321,-23.09946 5.74361,-11.35159 7.59099,-14.74105 9.5193,-17.46544 1.31593,-1.85922 2.51608,-3.50717 2.66701,-3.6621 0.25936,-0.26625 -5.8025,11.79264 -19.40022,38.59298 -12.15684,23.96048 -19.66825,38.78993 -23.57886,46.55072 -2.20539,4.37675 -4.13657,7.95593 -4.2915,7.95373 -0.15495,-0.002 -0.47032,-0.12324 -0.70086,-0.269 z m -23.234122,-2.02117 c -0.0748,-0.20974 -1.83837,-5.00829 -3.919048,-10.66342 -4.715599,-12.81673 -9.458571,-25.75021 -11.673501,-31.83218 -0.931,-2.55644 -2.021207,-5.53542 -2.422688,-6.61997 -0.644916,-1.74218 -0.664231,-1.88986 -0.165776,-1.26765 2.384666,2.97669 2.226456,2.60436 9.157089,21.5501 1.133551,3.09871 3.669323,10.00742 5.635046,15.35269 4.561208,12.40299 4.946168,13.52163 4.653198,13.52163 -0.13303,0 -0.44132,0.0765 -0.68509,0.17008 -0.24853,0.0954 -0.50296,0.002 -0.57923,-0.21128 z m 18.632402,0.12298 c -0.28251,-0.0721 -0.45803,-0.27843 -0.39002,-0.45854 0.8467,-2.24271 3.08198,-8.31105 5.98333,-16.24358 1.95506,-5.34527 3.97686,-10.85957 4.49288,-12.25398 0.51605,-1.39442 1.90924,-5.19738 3.09602,-8.45102 1.18677,-3.25364 2.48692,-6.80307 2.88925,-7.88762 0.59782,-1.61148 2.14326,-4.08753 3.51633,-5.63369 0.13744,-0.15476 -0.0558,0.54245 -0.42947,1.54936 -1.1574,3.11899 -4.03955,10.94249 -5.5001,14.92981 -0.76615,2.09163 -2.34743,6.40164 -3.51393,9.57782 -1.16648,3.17618 -3.46832,9.45106 -5.11518,13.94419 -1.64685,4.49312 -3.22533,8.79776 -3.50773,9.56587 -0.53495,1.45502 -0.67238,1.578 -1.52138,1.36138 z m -15.50946,-10.78486 c -1.065952,-0.13407 -2.062702,-0.3684 -2.215022,-0.52072 -0.15232,-0.15231 -0.32671,-0.8267 -0.38755,-1.49866 -0.0608,-0.67195 -0.36641,-4.1062 -0.67906,-7.63167 -0.68113,-7.6805 -1.11415,-10.31034 -2.26156,-13.73512 -0.476818,-1.42323 -0.826328,-2.6283 -0.776708,-2.67792 0.0496,-0.0496 1.167398,-0.3223 2.483918,-0.60591 3.367102,-0.72536 17.851022,-0.73518 21.238462,-0.0144 1.22344,0.26033 2.28433,0.53321 2.35752,0.6064 0.0732,0.0732 -0.19554,1.05817 -0.59716,2.18885 -0.40161,1.13069 -0.92097,2.82397 -1.15412,3.76286 -0.41211,1.65957 -1.35116,10.07312 -1.69593,15.19497 -0.27578,4.09707 -0.32694,4.27278 -1.35417,4.65118 -1.12865,0.41577 -12.22783,0.62363 -14.95862,0.28014 z m -12.460998,-33.1718 c -25.286722,-26.55709 -41.908837,-48.39901 -53.07029,-69.7358 -1.118687,-2.13854 -1.962638,-3.9596 -1.875442,-4.0468 0.0872,-0.0872 0.576999,-0.004 1.088449,0.18613 0.511449,0.18957 2.197557,0.3925 3.746911,0.45096 l 2.817005,0.10629 1.840489,4.01839 c 8.258516,18.0311 21.426626,38.69959 37.492383,58.84755 4.039133,5.06545 7.142061,8.77026 10.054115,12.00433 1.150948,1.27822 2.040899,2.32404 1.977668,2.32404 -0.06323,0 -1.895305,-1.86979 -4.071288,-4.15509 z m 36.123438,1.9719 c 1.06343,-1.20074 2.00218,-2.24656 2.08615,-2.32403 0.27023,-0.2494 4.85057,-5.73967 7.28757,-8.73538 3.04595,-3.74423 11.09095,-14.41755 14.01189,-18.58958 10.25499,-14.64749 18.21754,-28.16291 24.19067,-41.0607 l 1.99082,-4.29877 2.80641,-0.10762 c 1.54354,-0.0592 3.22488,-0.26272 3.73633,-0.45229 0.51146,-0.18956 1.00136,-0.27322 1.08868,-0.18589 0.18545,0.18545 -2.95332,6.2193 -5.93084,11.40113 -9.36443,16.29725 -24.70706,36.34232 -42.30278,55.26829 -4.00256,4.30517 -10.65798,11.26803 -10.7705,11.26803 -0.0703,0 0.74217,-0.98244 1.8056,-2.18319 z M 94.6319,214.13445 C 83.226907,200.29185 73.900248,186.2412 65.632509,170.44676 61.313033,162.19496 55.902744,149.54464 53.874391,142.95399 l -0.35508,-1.15376 1.593218,0.6434 c 4.685046,1.892 10.652438,1.58302 16.411427,-0.84975 0.368133,-0.15551 0.519316,0.13692 0.819013,1.58412 0.755221,3.64692 4.333748,15.84138 6.886162,23.4658 3.391212,10.13004 8.532838,23.4285 11.926169,30.84622 0.318947,0.69721 1.302089,2.85222 2.18476,4.78891 0.88267,1.9367 2.604738,5.53771 3.826818,8.00227 1.22209,2.46456 2.18906,4.50598 2.14883,4.5365 -0.0403,0.0305 -0.87109,0.17991 -1.84634,0.33199 l -1.7732,0.2765 z m 23.2029,1.03053 c -0.92961,-0.15486 -1.72941,-0.31513 -1.77733,-0.35615 -0.0479,-0.041 1.01298,-2.27194 2.35756,-4.95759 9.62485,-19.22452 19.44127,-45.59468 24.23868,-65.11306 0.65425,-2.66189 0.89761,-3.27801 1.23768,-3.13348 5.70691,2.42547 11.70855,2.72674 16.41963,0.82423 l 1.62963,-0.65811 -0.18402,0.60506 c -0.1012,0.33279 -0.98375,2.76007 -1.96123,5.39397 -6.99991,18.86223 -17.64696,38.12824 -31.0406,56.16846 -2.76871,3.72927 -9.08491,11.65921 -9.19509,11.5444 -0.0191,-0.0199 -0.79529,-0.16287 -1.72491,-0.31773 z m -13.87325,-2.25185 c -6.001672,-27.138 -9.63065,-48.19868 -11.768788,-68.29961 l -0.185916,-1.74781 1.364254,0.6575 c 3.748438,1.80658 9.60006,3.05454 14.32248,3.05454 4.7086,0 10.57418,-1.24805 14.29631,-3.04192 0.84736,-0.40837 1.33808,-0.52342 1.33808,-0.31372 0,0.18214 -0.31811,2.98654 -0.7069,6.23203 -2.3591,19.69273 -5.83337,39.47931 -11.01892,62.75474 l -0.4864,2.18318 h -3.41356 -3.41356 z m -1.93517,-68.24744 c -3.193992,-0.58469 -5.433402,-1.26382 -7.88425,-2.39101 l -2.283427,-1.05019 -0.181692,-1.65708 c -1.206289,-11.00162 -1.711896,-21.12747 -1.721427,-34.47521 -0.0099,-13.842742 0.172043,-17.112219 1.56746,-28.170059 1.351296,-10.708167 4.072734,-27.494234 4.948354,-30.521892 0.35792,-1.237584 5.349162,-2.697098 9.979672,-2.918204 3.65635,-0.174586 6.03319,0.133544 9.30063,1.205723 2.72567,0.894406 3.04144,1.139529 3.37388,2.619102 1.79343,7.982005 5.09324,30.517726 5.90388,40.319896 0.49587,5.996193 0.65067,21.288804 0.29512,29.156024 -0.30662,6.78464 -1.17992,19.1551 -1.61148,22.82697 l -0.18488,1.57313 -1.57906,0.79551 c -2.09242,1.05412 -5.70874,2.17691 -8.68074,2.69519 -2.89513,0.50486 -8.46232,0.50095 -11.24204,-0.008 z m -43.144131,-2.69333 c -2.196372,-0.33801 -4.660751,-1.24291 -5.569674,-2.04512 -0.526061,-0.4643 -0.991162,-1.67596 -1.963652,-5.11562 -2.493237,-8.81848 -4.247586,-18.4102 -4.94268,-27.02357 -0.430804,-5.33837 -0.197607,-18.255799 0.412286,-22.837439 1.73101,-13.003766 4.934854,-23.677746 9.968831,-33.212251 1.541594,-2.919838 1.696642,-3.109154 3.164165,-3.863542 4.078165,-2.0964 10.725081,-2.235638 14.944471,-0.313046 l 1.066708,0.486056 -1.21435,2.821377 c -2.80653,6.52056 -5.362944,15.117722 -6.741807,22.672534 -3.277037,17.955002 -2.411168,39.223781 2.515241,61.782821 0.53529,2.45121 0.973252,4.50945 0.973252,4.57385 0,0.22256 -2.119721,1.0391 -4.08466,1.57348 -2.389357,0.64979 -6.131031,0.86938 -8.528131,0.50047 z m 90.677891,-0.12292 c -2.16976,-0.39288 -5.2885,-1.44016 -5.55031,-1.86381 -0.0836,-0.13529 0.22992,-1.92523 0.69678,-3.97764 4.90585,-21.5677 5.93599,-44.000437 2.82976,-61.621149 -1.36608,-7.749186 -4.16472,-17.279052 -6.85888,-23.355507 -0.71451,-1.611517 -1.26596,-2.956579 -1.22543,-2.989035 1.87756,-1.503461 8.71861,-2.302953 12.36195,-1.444709 1.02591,0.241671 2.56502,0.748854 3.42024,1.127072 1.46669,0.64864 1.63153,0.828142 2.90401,3.162565 5.28116,9.688419 8.67402,20.810872 10.46408,34.303238 0.71506,5.389894 0.70969,21.198425 -0.009,26.941445 -1.00738,8.04787 -2.43053,15.09853 -4.62087,22.89326 l -1.33291,4.74327 -1.72003,0.84678 c -3.05979,1.50616 -7.30834,1.96778 -11.35956,1.23422 z m -113.737265,-5.0638 c -2.232965,-0.48565 -3.378661,-1.09229 -3.870052,-2.04921 -1.126794,-2.19427 -4.575821,-10.64826 -5.519744,-13.52957 -1.83971,-5.61568 -3.257226,-12.00903 -4.010092,-18.08656 -0.561922,-4.536066 -0.470749,-17.591822 0.152457,-21.831795 1.474191,-10.029613 4.385384,-19.050662 8.590799,-26.620711 1.395783,-2.512504 1.848397,-3.085101 3.006084,-3.802962 1.23448,-0.765477 1.577244,-0.84267 3.637988,-0.819301 1.592893,0.01806 2.629666,0.187008 3.457548,0.563403 l 1.182448,0.537597 -1.445729,2.535312 c -5.450211,9.557766 -8.995149,21.183401 -10.086147,33.077544 -0.517704,5.644011 -0.213215,14.509833 0.692503,20.163873 1.305813,8.15162 3.980776,17.62572 7.436677,26.33901 0.768139,1.93669 1.340093,3.61633 1.271008,3.73253 -0.191275,0.32174 -2.561796,0.21145 -4.495748,-0.20916 z m 139.443875,0.22443 c -0.22206,-0.15885 0.0538,-1.15239 0.9235,-3.32525 3.0527,-7.62738 5.87271,-17.15642 7.14293,-24.13645 3.489,-19.172564 0.47735,-38.549903 -8.56487,-55.107418 -0.86863,-1.590562 -1.57933,-3.005074 -1.57933,-3.143363 0,-0.138282 0.72889,-0.526656 1.6198,-0.863047 2.84252,-1.073336 6.52504,-0.317826 7.90174,1.621142 0.30501,0.429577 1.19668,1.985328 1.98147,3.457212 9.97489,18.708069 11.5785,43.679158 4.22404,65.777094 -1.52179,4.57254 -5.2812,13.37758 -6.0349,14.13453 -0.33563,0.33709 -1.28841,0.81428 -2.11727,1.06043 -1.79484,0.53301 -5.05124,0.84408 -5.49711,0.52512 z M 41.212215,49.169312 C 39.411464,48.455635 37.088377,48.27857 35.500482,48.733976 34.447045,49.036093 34.434127,49.077861 36.104627,46.780173 47.585883,30.98826 65.303477,19.95544 86.284326,15.53308 c 4.279127,-0.90196 9.761172,-1.72696 11.207282,-1.68661 0.49822,0.0139 -0.10828,0.20769 -1.34775,0.43064 -20.522956,3.69151 -39.162137,15.72513 -51.112542,32.998691 -0.990489,1.431696 -1.874693,2.594146 -1.964892,2.583229 -0.0902,-0.01092 -0.924597,-0.321296 -1.854209,-0.689718 z M 171.32471,48.696533 c -0.41981,-0.666656 -1.27963,-1.909314 -1.9107,-2.761462 C 157.28639,29.55898 140.32724,18.54838 121.25463,14.66801 c -1.52768,-0.31081 -3.11224,-0.57512 -3.52126,-0.58735 -0.40902,-0.0122 -0.57895,-0.0883 -0.37762,-0.16897 0.95686,-0.38354 11.54466,1.36453 16.67683,2.75338 19.05543,5.15674 35.30411,16.040131 45.45746,30.447457 l 1.32609,1.881697 -1.06698,-0.295779 c -1.31869,-0.365549 -4.55267,-0.122668 -5.62349,0.422336 -1.78267,0.907282 -1.98138,0.877186 -2.80095,-0.424248 z M 75.896647,46.450845 c -1.199568,-0.684654 -3.626564,-1.356692 -5.997746,-1.66078 -2.795228,-0.358473 -5.43662,-0.09055 -8.155059,0.827186 -0.834255,0.281645 -1.516827,0.419857 -1.516827,0.307144 0,-0.112712 0.903417,-1.455761 2.007605,-2.984562 C 71.571142,30.01297 83.974315,20.87437 99.524258,15.46504 c 1.945302,-0.67671 3.610392,-1.07841 4.473372,-1.07919 l 1.37467,-10e-4 -2.78317,1.8575 c -7.50514,5.00896 -14.812686,12.39734 -20.034379,20.256002 -1.821115,2.740784 -5.140079,8.398811 -5.150259,8.779944 -0.0035,0.128959 -0.225283,0.513426 -0.492978,0.854361 -0.391898,0.499133 -0.589593,0.561167 -1.014867,0.318439 z M 138.2315,45.864646 C 136.92318,42.684536 131.40706,34.062797 128.36393,30.44154 123.58632,24.75627 118.14508,19.79926 112.77775,16.2424 l -2.80345,-1.8578 1.25409,4e-5 c 3.69029,1.1e-4 14.84847,4.85275 22.09996,9.61115 4.95553,3.25181 8.04767,5.8009 12.39483,10.217935 3.53387,3.590708 9.43698,10.934589 9.43698,11.740306 0,0.09641 -0.69178,-0.05824 -1.53731,-0.343684 -2.17962,-0.735836 -5.36051,-1.141943 -7.33626,-0.93663 -2.28782,0.237741 -5.12817,0.938884 -6.39748,1.579209 -0.57484,0.289984 -1.09822,0.527247 -1.16305,0.527247 -0.0649,0 -0.28741,-0.411985 -0.49456,-0.915527 z M 97.011578,43.47019 c 2.98808,-13.30372 6.114612,-23.12276 8.737412,-27.44036 0.89968,-1.48103 1.09388,-1.64523 1.9458,-1.64523 1.09396,0 1.59147,0.57279 2.81377,3.23955 2.71485,5.92313 4.76189,12.40571 7.00513,22.183934 0.52427,2.285296 0.86254,4.155084 0.75169,4.155084 -0.11084,0 -0.95027,-0.261805 -1.86541,-0.581791 -2.6314,-0.920106 -5.56525,-1.390288 -8.66075,-1.387987 -3.46039,0.0024 -5.81566,0.359046 -8.447402,1.278514 -2.35875,0.824106 -2.42204,0.829612 -2.28024,0.198286 z"
       id="path802"
       inkscape:export-filename="hotBalloon.png"
       inkscape:export-xdpi="96"
       inkscape:export-ydpi="96" /></g></svg>
