<?xml version="1.0" encoding="UTF-8" standalone="no"?>
<!-- Created with Inkscape (http://www.inkscape.org/) -->

<svg
   width="254.01579mm"
   height="102.52589mm"
   viewBox="0 0 254.01579 102.52589"
   version="1.1"
   id="svg5"
   xml:space="preserve"
   xmlns:inkscape="http://www.inkscape.org/namespaces/inkscape"
   xmlns:sodipodi="http://sodipodi.sourceforge.net/DTD/sodipodi-0.dtd"
   xmlns="http://www.w3.org/2000/svg"
   xmlns:svg="http://www.w3.org/2000/svg"><sodipodi:namedview
     id="namedview7"
     pagecolor="#ffffff"
     bordercolor="#000000"
     borderopacity="0.25"
     inkscape:showpageshadow="2"
     inkscape:pageopacity="0.0"
     inkscape:pagecheckerboard="0"
     inkscape:deskcolor="#d1d1d1"
     inkscape:document-units="mm"
     showgrid="false" /><defs
     id="defs2" /><g
     inkscape:label="Layer 1"
     inkscape:groupmode="layer"
     id="layer1"
     transform="translate(-24.693548,-45.583829)"><path
       style="fill:#000000;stroke-width:0.264583"
       d="m 24.693547,145.33176 v -2.77813 h 0.675589 0.675588 l -0.06277,-5.88698 c -0.07174,-6.72778 0.02804,-7.45301 1.101739,-8.00824 1.47907,-0.76486 1.945596,-0.17148 2.523784,3.21003 0.534256,3.12457 0.540042,3.13905 1.270963,3.18086 l 0.63453,0.0363 0.101626,-5.39027 0.101625,-5.39026 0.40697,-0.40697 c 0.223833,-0.22384 1.009281,-0.63584 1.74544,-0.91555 l 1.338472,-0.50858 0.16608,6.26952 c 0.217347,8.20489 0.556045,9.97968 1.358614,7.1192 0.14814,-0.52799 0.417168,-1.10781 0.59784,-1.28848 l 0.328494,-0.3285 v -10.00125 -10.00125 h 11.906251 11.90625 v 9.26042 c 0,5.3278 0.101369,9.26042 0.238699,9.26042 0.359238,0 0.773379,-1.39326 0.96421,-3.2438 0.09364,-0.90805 0.279085,-2.08443 0.412105,-2.61418 l 0.24185,-0.96319 0.92365,-0.17328 0.923652,-0.17328 v -2.76614 -2.76613 h 1.175009 c 0.646256,0 1.248794,-0.11939 1.338975,-0.2653 l 0.163965,-0.2653 0.513109,0.27461 0.513109,0.27461 v 8.17716 8.17716 l 0.276172,0.17068 c 0.151897,0.0939 0.449553,0.0268 0.661458,-0.14907 l 0.385287,-0.31976 0.0186,-1.62125 c 0.01022,-0.89169 0.120917,-1.85938 0.245983,-2.15042 l 0.227391,-0.52916 0.0186,0.48242 c 0.0275,0.71335 0.884666,0.4407 1.105101,-0.35152 l 0.183666,-0.66007 0.03042,1.45521 c 0.01675,0.80036 0.147664,1.6338 0.290957,1.85208 l 0.260528,0.39688 0.260532,-0.39688 c 0.143293,-0.21828 0.263665,-0.87312 0.267494,-1.45521 0.0038,-0.58208 0.08076,-1.50482 0.170963,-2.05052 l 0.163997,-0.99219 h 1.010568 1.010568 l 0.263051,0.46303 0.263054,0.46302 0.543843,-0.33297 0.543846,-0.33298 0.004,1.39131 c 0.0021,0.76522 0.107979,1.55538 0.235003,1.75593 0.307877,0.48608 0.819283,0.14055 0.819283,-0.55354 v -0.55456 l 0.529166,0.47889 c 0.291042,0.26339 0.529167,0.63903 0.529167,0.83476 0,0.71044 0.436922,0.32853 1.030668,-0.90091 0.33382,-0.69122 1.001917,-1.91161 1.484662,-2.71198 1.055987,-1.75077 1.982587,-4.40117 1.982587,-5.67088 v -0.92508 l 0.546147,-0.29229 0.54615,-0.29229 -0.170296,-0.77535 -0.170296,-0.77536 h 0.550187 c 0.302607,0 0.550191,-0.0359 0.550191,-0.0797 0,-0.0438 0.947483,-3.40602 2.10552,-7.47152 l 2.10552,-7.39183 -0.52627,-0.89195 -0.52626,-0.89196 0.33897,-0.43392 c 0.18644,-0.23865 0.47797,-0.55298 0.64785,-0.6985 0.44625,-0.38227 1.8532,-16.835479 3.2925,-38.503248 l 0.32556,-4.901163 -0.44211,-1.297532 c -0.49426,-1.450591 -0.57952,-2.790767 -0.17753,-2.790767 0.14552,0 0.26458,-0.398266 0.26458,-0.885034 0,-0.529148 0.19936,-1.065453 0.49578,-1.333707 0.59783,-0.541031 0.84334,-1.780581 1.08024,-5.454176 l 0.17915,-2.778125 0.0485,2.852769 c 0.0479,2.817986 0.38609,4.260575 1.22086,5.20734 0.8337,0.945544 1.2114,4.726795 0.45624,4.567503 l -0.34318,-0.07239 0.14599,2.056764 c 0.0803,1.131218 0.21335,4.080825 0.29569,6.554679 0.39549,11.883218 1.49944,26.710669 2.50945,33.705147 0.52737,3.65215 0.66216,4.10456 1.040537,3.49233 l 0.22127,-0.35802 0.17588,0.55413 c 0.18848,0.59386 -0.2324,1.63245 -0.661547,1.63245 -0.14317,0 -0.20077,0.26789 -0.12798,0.59532 0.829787,3.73309 2.192487,9.14359 2.962817,11.76367 l 0.95595,3.25143 h 0.42945 0.42944 l -0.003,0.8599 -0.003,0.8599 0.59531,0.0845 0.59531,0.0845 v 0.86559 c 0,1.60823 4.60924,12.50184 5.32058,12.57482 0.0887,0.009 0.3834,-1.38245 0.65498,-3.09232 l 0.49377,-3.10885 0.41678,2.24896 0.41678,2.24896 0.84647,0.0829 0.84648,0.0829 v -5.32583 c 0,-3.14709 -0.11146,-5.53408 -0.27245,-5.8349 l -0.27245,-0.50908 0.42687,-0.65149 c 0.25779,-0.39344 0.39191,-1.04084 0.3386,-1.63443 l -0.0883,-0.98293 0.79375,-0.22864 c 1.12675,-0.32457 18.32342,-0.11845 18.66558,0.22373 l 0.27179,0.27178 -0.28144,0.74026 -0.28144,0.74026 0.40999,0.62574 c 0.22551,0.34416 0.58586,0.62575 0.80078,0.62575 0.54964,0 0.48574,0.43264 -0.12731,0.86204 l -0.51808,0.36288 -0.0223,4.61306 c -0.0123,2.53718 -0.0173,4.82142 -0.0111,5.07608 0.0175,0.72055 0.7871,0.54448 1.08882,-0.24909 0.15188,-0.39948 0.19373,-1.3285 0.0953,-2.11614 l -0.17542,-1.40402 0.82417,0.16483 0.82435,0.16484 v -0.41765 -0.41764 l 0.80227,0.45072 0.80228,0.45071 0.47116,-0.61589 0.47116,-0.6159 0.36629,0.44135 0.36629,0.44135 0.2851,-0.3899 c 0.1568,-0.21444 0.52026,-0.43491 0.80767,-0.48993 l 0.52257,-0.10003 0.17252,-4.21357 c 0.25497,-6.22711 0.62974,-7.6539 2.34317,-8.92069 l 0.7916,-0.58526 v -0.90106 -0.90105 l 0.49843,-0.13034 0.49843,-0.13034 -0.14449,-0.5725 c -0.0795,-0.31487 -0.274,-0.67085 -0.43228,-0.79107 l -0.2878,-0.21858 0.33073,-0.13419 c 0.1819,-0.0738 0.33879,-0.39217 0.34864,-0.70747 l 0.0179,-0.57326 0.30777,0.66146 c 0.16927,0.3638 0.47522,0.79088 0.67989,0.94906 l 0.37212,0.28761 -0.12181,1.46894 -0.12182,1.46894 0.77363,0.45699 c 0.7618,0.45001 1.7614,2.20223 1.77276,3.10752 0.003,0.25466 0.1192,0.46302 0.25778,0.46302 0.13859,0 0.24926,0.85883 0.24594,1.9085 -0.0238,7.52774 0.60206,9.80032 2.43545,8.8436 l 0.6844,-0.35714 0.46972,0.34346 c 0.25834,0.18891 0.9005,0.30481 1.42702,0.25756 l 0.9573,-0.0859 0.32404,-0.75869 c 0.17823,-0.41727 0.32942,-1.30865 0.33598,-1.98083 l 0.0119,-1.22216 0.99219,-0.16399 c 0.5457,-0.0902 1.43448,-0.16531 1.97507,-0.16691 l 0.98287,-0.003 0.2739,-0.51178 c 0.15064,-0.28147 0.27389,-0.81725 0.27389,-1.19062 0,-0.73044 0.46722,-0.88706 1.03849,-0.34812 l 0.35057,0.33073 0.10876,-0.29321 c 0.0598,-0.16127 0.27928,-0.51845 0.48768,-0.79375 l 0.37892,-0.50054 0.008,0.59531 c 0.009,0.64977 0.51152,0.76948 1.34873,0.32142 l 0.51177,-0.2739 v 1.07419 1.07419 l 0.67868,0.25804 c 0.37327,0.14192 1.43062,0.25803 2.34965,0.25803 h 1.67096 l 0.18806,2.7591 0.18806,2.75908 0.37271,0.14303 c 0.20961,0.0804 0.37271,0.50182 0.37271,0.9629 v 0.81989 l 0.59531,-0.18299 c 0.32743,-0.10065 0.64606,-0.22887 0.70808,-0.28494 0.062,-0.0561 0.21058,-1.61886 0.33013,-3.47286 0.30115,-4.67058 0.4052,-4.95365 0.44712,-1.21641 l 0.036,3.21284 0.40942,0.15711 c 0.22518,0.0864 0.53703,0.52316 0.69299,0.97056 l 0.28357,0.81344 0.43149,-0.16706 c 0.23732,-0.0919 0.99703,-0.29822 1.68826,-0.45852 l 1.25677,-0.29147 v -2.8319 c 0,-1.55754 0.0737,-3.20059 0.16386,-3.65122 l 0.16386,-0.81931 0.86333,-0.50937 0.86332,-0.50938 0.52877,-1.54865 0.52878,-1.54866 0.31321,0.78978 c 0.73806,1.86105 1.18689,2.56293 1.86221,2.91216 l 0.71808,0.37133 0.17229,2.03818 c 0.0948,1.121 0.17229,2.71902 0.17229,3.55115 v 1.51296 l 0.99219,0.16399 c 0.5457,0.0902 1.15223,0.16531 1.34785,0.16691 l 0.35566,0.003 -0.0652,-8.00365 -0.0652,-8.00365 0.30486,-0.74483 c 0.16768,-0.40965 0.31762,-1.06449 0.3332,-1.4552 l 0.0283,-0.71038 0.26134,1.19062 c 0.14373,0.65485 0.4091,1.36922 0.5897,1.5875 l 0.32837,0.39688 -0.18029,3.175 c -0.0992,1.74625 -0.12107,5.46695 -0.0487,8.26823 l 0.13159,5.09323 h 0.3567 c 0.20179,0 0.3567,-0.28048 0.3567,-0.64585 0,-0.35521 0.11906,-0.71943 0.26458,-0.80936 0.15437,-0.0954 0.26459,0.17364 0.26459,0.64584 0,0.91015 -0.0132,0.90187 0.88855,0.55904 0.36773,-0.13982 0.70985,-0.51944 0.77494,-0.8599 l 0.11653,-0.60957 0.036,0.8599 0.036,0.8599 h 0.64363 c 0.79187,0 1.05317,0.68669 0.80969,2.12782 -0.20625,1.22082 0.16128,1.39101 0.823,0.38109 l 0.43644,-0.66608 0.32882,0.2729 0.32882,0.27289 0.16725,-1.52504 c 0.092,-0.83877 0.28389,-4.20395 0.42645,-7.47817 0.24882,-5.71469 0.58461,-8.67672 1.0798,-9.525 l 0.23168,-0.39687 0.008,0.43471 c 0.009,0.47811 0.87363,0.9373 1.0077,0.53508 0.0724,-0.21718 1.76851,0.10754 2.16506,0.4145 0.21383,0.16552 0.5869,5.67429 0.54493,8.04652 l -0.0405,2.28706 3.61577,0.19366 c 1.98867,0.10651 4.27733,0.11591 5.0859,0.0209 l 1.47014,-0.17279 0.48783,-0.56248 c 0.26831,-0.30936 0.49146,-0.45497 0.49589,-0.32356 0.004,0.13141 0.13876,0.0138 0.29852,-0.26126 0.15977,-0.2751 0.27492,-1.16807 0.25589,-1.98438 -0.0328,-1.40654 0.31176,-4.8895 0.6834,-6.90815 l 0.17049,-0.92604 0.33274,3.04271 c 0.18301,1.67349 0.34058,3.76409 0.35016,4.64578 0.0304,2.79683 1.08671,3.24294 1.52934,0.64589 l 0.24802,-1.45521 0.20944,2.05052 0.20946,2.05052 h 4.68834 4.68836 l 1.13142,1.0763 c 0.62228,0.59196 1.41557,1.18433 1.76286,1.31637 0.37355,0.14202 0.63143,0.45509 0.63143,0.76657 0,0.63236 1.48717,2.39701 2.02009,2.39701 0.51874,0 0.69436,-0.57554 0.40995,-1.34343 -0.37242,-1.00551 -0.11414,-1.30241 1.13303,-1.30241 h 1.13771 l 0.1592,-0.59531 c 0.0875,-0.32742 0.23924,-2.06496 0.33709,-3.8612 l 0.17789,-3.26589 0.72031,0.14406 0.72031,0.14406 0.62561,-2.42662 c 0.34409,-1.33464 0.89418,-2.82237 1.22242,-3.30607 0.32825,-0.48369 0.59863,-1.14204 0.60086,-1.463 0.002,-0.32096 0.11947,-0.76216 0.26053,-0.98044 l 0.25648,-0.39688 0.004,1.07391 c 0.004,0.95772 0.59208,2.30925 0.85705,1.96839 0.0564,-0.0725 0.55543,-1.53103 1.10899,-3.24111 0.55357,-1.71007 1.3401,-3.56977 1.74785,-4.13266 l 0.74137,-1.02343 0.16677,-1.55589 c 0.0917,-0.85573 0.23553,-1.9726 0.31957,-2.48192 l 0.1528,-0.92604 0.21435,0.52917 c 0.1179,0.29104 0.22273,1.31622 0.23295,2.27818 l 0.0186,1.74901 0.66146,0.96297 c 0.3638,0.52963 0.95676,1.39282 1.31768,1.91821 0.36092,0.52538 0.7338,1.54008 0.82862,2.25489 0.0948,0.71481 0.27578,1.36354 0.40212,1.44163 0.12634,0.0781 0.22971,0.60416 0.22971,1.16907 0,2.16759 1.08183,1.31222 1.27516,-1.00823 l 0.12542,-1.50531 0.20715,0.52916 c 0.11394,0.29104 0.21553,0.8625 0.22575,1.26991 0.0102,0.40741 0.22032,1.12179 0.46686,1.5875 0.24654,0.46572 0.76017,1.91832 1.14139,3.22801 l 0.69312,2.38125 0.88008,-0.09 0.88008,-0.09 -0.1661,0.61914 c -0.0914,0.34053 -0.0899,2.07766 0.003,3.86029 l 0.16933,3.24114 h 1.41489 1.41488 v 1.16168 1.16168 l 0.99219,0.12369 c 0.5457,0.068 1.02645,0.0964 1.06832,0.0631 0.0419,-0.0333 -0.0637,-2.74523 -0.23453,-6.0264 l -0.31066,-5.96577 0.56526,-0.71861 c 0.31089,-0.39523 0.5657,-0.91091 0.56625,-1.14594 5.2e-4,-0.24876 0.22008,-0.068 0.52527,0.43255 0.28836,0.47294 0.62023,0.8599 0.73748,0.8599 0.11725,0 0.13271,0.98226 0.0343,2.18281 -0.0984,1.20055 -0.25688,4.05805 -0.35226,6.35 l -0.17343,4.16719 h 0.4279 c 0.23535,0 0.77593,-0.34803 1.2013,-0.7734 l 0.7734,-0.7734 v -2.4016 -2.4016 h 0.49274 0.49274 l 0.17332,-1.47473 c 0.23035,-1.9599 0.78661,-3.22109 1.58017,-3.58266 l 0.6498,-0.29606 0.17668,-1.22588 c 0.0972,-0.67423 0.2453,-1.51256 0.32916,-1.86295 l 0.15247,-0.63707 0.35771,0.4892 c 0.19674,0.26906 0.35771,0.97995 0.35771,1.57976 v 1.09055 l 0.82634,0.77711 c 1.03625,0.97452 1.55491,2.16583 1.55491,3.5715 v 1.0916 l 0.52917,0.13838 0.52916,0.13838 v 1.04309 c 0,0.62802 -0.10528,0.97802 -0.26458,0.87957 -0.16307,-0.10078 -0.26458,0.35003 -0.26458,1.17501 0,1.41715 0.41807,1.83985 0.60424,0.61093 0.0693,-0.45756 0.12493,-0.26818 0.14987,0.51026 0.0561,1.75326 0.39044,1.97329 3.33335,2.19393 l 2.52712,0.18946 v 3.92648 3.92649 l 0.72761,0.0837 0.7276,0.0837 0.0749,2.66824 0.0749,2.66825 -27.83384,0.17602 c -15.30861,0.0968 -72.46256,0.17603 -127.00876,0.17603 H 24.693547 Z M 128.1233,136.79894 c -0.0123,-1.12778 -0.11224,-2.76489 -0.22212,-3.63802 -0.11563,-0.91869 -0.0946,-1.75828 0.05,-1.99287 l 0.24976,-0.40536 -0.40859,-0.9779 c -0.53263,-1.27476 -1.80597,-2.04556 -3.38132,-2.04684 l -1.22109,-0.001 -0.69076,0.54335 c -0.70109,0.55148 -1.38227,2.38936 -1.12961,3.04778 0.0761,0.19837 0.0245,0.43104 -0.11463,0.51705 -0.13916,0.0861 -0.25303,0.62567 -0.25303,1.19917 v 1.04271 h 0.36857 c 0.20271,0 0.44934,-0.20836 0.54806,-0.46302 l 0.1795,-0.46302 0.37798,0.51359 c 0.20789,0.28248 0.37798,0.89367 0.37798,1.35821 v 0.84461 l 0.52916,0.13838 0.52917,0.13838 v 0.68623 c 0,0.77569 0.77393,0.98522 0.82444,0.22321 l 0.0307,-0.46302 0.121,0.46302 0.121,0.46302 h 1.14254 1.14254 l 0.16602,0.66146 c 0.33858,1.34902 0.68469,0.62365 0.66278,-1.38907 z m -78.294337,0.37261 V 136.261 l -0.595313,-0.14137 c -0.327422,-0.0778 -1.309687,-0.21472 -2.182812,-0.30439 -0.873125,-0.0897 -2.004219,-0.23746 -2.513542,-0.32843 l -0.926041,-0.16542 1.322916,-0.2993 1.322917,-0.29931 0.132292,-1.44239 c 0.07848,-0.85565 0.218232,-1.30968 0.343562,-1.11616 0.116199,0.17943 0.129485,0.76219 0.02953,1.29502 l -0.181746,0.96879 0.36735,-0.21078 c 0.202043,-0.11593 0.576193,-0.39016 0.831446,-0.6094 l 0.464096,-0.39861 0.672832,0.30657 c 0.878457,0.40025 0.819252,0.42561 1.137455,-0.48719 0.305761,-0.87711 0.865672,-1.10662 0.645476,-0.26458 -0.158352,0.60554 0.118246,0.66578 0.772988,0.16834 0.259485,-0.19714 0.428911,-0.63921 0.396875,-1.03555 -0.03075,-0.38036 0.05998,-0.66826 0.201613,-0.63978 0.141634,0.0285 0.22462,0.3028 0.184417,0.6096 l -0.0731,0.55782 1.403082,-0.12879 c 0.771697,-0.0708 1.439334,-0.15967 1.483638,-0.1974 0.130305,-0.11099 0.763434,-11.35363 0.651632,-11.57122 -0.05608,-0.10914 -2.95243,-0.19844 -6.436341,-0.19844 h -6.334389 v 0.79375 0.79375 l 1.521354,0.0416 1.521355,0.0416 -1.307539,0.15686 -1.307539,0.15688 -0.227815,0.88472 c -0.125298,0.4866 -0.191749,1.37957 -0.147669,1.98438 l 0.08015,1.09965 1.322917,0.15687 1.322916,0.15687 -1.400193,0.0416 -1.400191,0.0416 0.07728,2.04241 0.07728,2.04241 1.322917,-0.0679 1.322916,-0.0679 -0.396875,0.2704 c -0.218281,0.14872 -0.694531,0.27405 -1.058333,0.27851 -0.363802,0.004 -0.810179,0.10253 -0.991949,0.21795 l -0.33049,0.20986 0.04342,2.69651 0.04342,2.69651 h 0.444497 c 0.244473,0 0.64637,0.22307 0.893105,0.49571 l 0.448608,0.4957 2.502815,0.0467 2.502816,0.0466 z m 47.492708,0.0904 c 0.12261,0 0.44455,-0.20057 0.71544,-0.44572 l 0.49252,-0.44573 1.36745,0.57774 c 1.648199,0.69634 1.874829,0.5348 1.751339,-1.2483 l -0.0934,-1.34873 0.567,1.6e-4 c 0.65251,1.9e-4 0.8882,0.46234 0.8882,1.7416 0,0.94586 0.21128,1.11646 0.73458,0.59315 l 0.31125,-0.31124 0.53704,0.48601 c 1.51489,1.37095 0.50469,-1.63135 -1.17901,-3.50404 -4.904529,-5.45502 -15.877438,-4.36104 -18.662974,1.86066 l -0.462423,1.03285 0.384315,0.77038 c 0.514194,1.03073 0.712423,0.97442 1.246558,-0.3541 l 0.452102,-1.12448 0.520395,0.99219 c 0.63196,1.2049 0.88741,1.24299 1.197084,0.17851 0.317807,-1.09244 0.634894,-1.09243 0.995744,5e-5 0.40709,1.23251 0.84898,1.29255 1.22082,0.16587 0.36213,-1.09726 0.72127,-1.2064 0.95148,-0.28914 0.0898,0.35784 0.3288,0.78796 0.53108,0.95584 l 0.36778,0.30524 0.11665,-0.36053 c 0.0642,-0.19829 0.19511,-1.17356 0.29101,-2.16727 0.0959,-0.99372 0.24221,-1.73889 0.32516,-1.65595 0.0829,0.0829 0.29896,0.0279 0.48005,-0.12244 l 0.32925,-0.27325 0.57122,0.8022 c 0.31417,0.44121 0.63902,1.22005 0.7219,1.73075 0.0858,0.52877 0.30448,0.92856 0.5079,0.92856 0.19647,0 0.4333,0.30317 0.52631,0.67372 l 0.16909,0.67372 0.45209,-0.40914 c 0.24865,-0.22502 0.55241,-0.40914 0.67501,-0.40914 z m 1.71832,-16.6026 c -8e-4,-0.10914 -0.10832,-0.61516 -0.23891,-1.12448 -0.13058,-0.50932 -0.31235,-1.2597 -0.40392,-1.66751 l -0.16649,-0.74148 0.52029,0.27845 c 0.68541,0.36682 0.81967,0.35166 0.81967,-0.0925 0,-0.20405 -0.33074,-0.48629 -0.73499,-0.62721 l -0.73498,-0.25622 -0.62659,-3.2754 c -0.7651,-3.99947 -0.73985,-3.92978 -1.43748,-3.96754 l -0.567,-0.0307 0.47707,-0.12371 0.47707,-0.1237 -0.28032,-0.33776 c -0.36515,-0.44 -1.6783,-0.20407 -1.4968,0.26892 l 0.13376,0.34856 -1.09788,0.0807 -1.09787,0.0807 -0.74839,3.96875 c -0.87947,4.66383 -0.89692,4.7232 -1.31268,4.46625 l -0.31957,-0.1975 0.3177,-0.1059 c 0.34274,-0.11425 0.44693,-0.85819 0.11926,-0.8515 -0.35068,0.007 -0.76157,0.38025 -0.9341,0.84818 -0.19217,0.5212 0.50415,1.35698 0.91763,1.10144 0.16518,-0.10209 0.21358,0.0265 0.12353,0.32829 -0.0814,0.27289 -0.22617,0.82358 -0.32161,1.22376 l -0.17354,0.72761 h 4.3943 c 2.41687,0 4.39365,-0.0893 4.39284,-0.19844 z"
       id="path1783" /></g></svg>
