<?xml version="1.0" encoding="UTF-8" standalone="no"?>
<!-- Created with Inkscape (http://www.inkscape.org/) -->

<svg
   width="14.704262mm"
   height="8.8855209mm"
   viewBox="0 0 14.704262 8.8855209"
   version="1.1"
   id="svg5"
   xml:space="preserve"
   xmlns:inkscape="http://www.inkscape.org/namespaces/inkscape"
   xmlns:sodipodi="http://sodipodi.sourceforge.net/DTD/sodipodi-0.dtd"
   xmlns="http://www.w3.org/2000/svg"
   xmlns:svg="http://www.w3.org/2000/svg"><sodipodi:namedview
     id="namedview7"
     pagecolor="#ffffff"
     bordercolor="#000000"
     borderopacity="0.25"
     inkscape:showpageshadow="2"
     inkscape:pageopacity="0.0"
     inkscape:pagecheckerboard="0"
     inkscape:deskcolor="#d1d1d1"
     inkscape:document-units="mm"
     showgrid="false" /><defs
     id="defs2" /><g
     inkscape:label="Layer 1"
     inkscape:groupmode="layer"
     id="layer1"
     transform="translate(-98.576718,-96.504618)"><path
       id="path962"
       style="fill:#00aad4;stroke:none;stroke-width:0.0846667;stroke-opacity:1"
       d="m 99.659033,96.504704 c -0.385827,-6.27e-4 -0.609716,0.0021 -0.617016,0.0093 -0.0302,0.02982 -0.0043,0.797273 0.05736,1.705322 l 0.112138,1.651062 -0.339514,1.510502 c -0.18677,0.83079 -0.318072,1.59599 -0.291972,1.70016 0.04116,0.164 0.164008,0.21416 0.917257,0.37413 0.478439,0.1016 0.934374,0.1844 1.013374,0.18397 0.0926,-5.4e-4 0.33335,0.31589 0.67748,0.89142 0.38274,0.6401 0.57223,0.88283 0.66973,0.85783 0.0993,-0.0255 8.7951,-6.278421 11.18794,-8.04499 0.24288,-0.17931 0.31859,-0.539481 0.12713,-0.605131 -0.15688,-0.05379 -10.81312,-0.229187 -13.513907,-0.233577 z m 0.10387,0.259415 c 2.031487,0.0033 10.171957,0.1261 11.992037,0.187586 0.3745,0.01265 0.37609,0.01442 0.11368,0.09043 -0.14684,0.04253 -0.98479,0.226328 -1.86241,0.40876 -0.87763,0.182433 -2.62464,0.545533 -3.88194,0.806669 -1.2573,0.261137 -2.53332,0.52988 -2.836,0.59738 -0.30268,0.0675 -1.217,0.258927 -2.03192,0.425297 -0.81492,0.16637 -1.548373,0.322232 -1.629873,0.346232 -0.08146,0.0238 -0.152647,0.03185 -0.158647,0.01705 -0.04677,-0.12449 -0.202664,-2.832993 -0.165364,-2.872693 0.0046,-0.0049 0.170224,-0.0072 0.460437,-0.0067 z m 12.372887,0.519349 -0.45527,0.21394 c -0.53421,0.250892 -0.51831,0.248495 -0.51831,0.09302 0,-0.133068 0.12429,-0.183876 0.6351,-0.257866 z m -1.39681,0.258899 c 0.10943,0 0.16898,0.05615 0.16898,0.159163 0,0.08825 -0.0753,0.179095 -0.16898,0.203605 -0.13474,0.03522 -0.1695,0.0029 -0.1695,-0.159163 0,-0.1473 0.0471,-0.203605 0.1695,-0.203605 z m 1.49758,0.02997 c 0.014,0.01403 -0.57422,0.458528 -1.30741,0.988053 -0.73318,0.529526 -1.8095,1.311708 -2.39159,1.73788 -0.58208,0.42616 -2.30408,1.67585 -3.82664,2.77709 -1.52255,1.10124 -2.79892,2.00195 -2.83652,2.00195 -0.0376,0 -0.40088,-0.55366 -0.80718,-1.23042 -0.71549,-1.19179 -0.73253,-1.23283 -0.54984,-1.30483 0.10374,-0.0409 2.77733,-1.18143 5.94124,-2.53473 3.16391,-1.353292 5.76394,-2.449023 5.77794,-2.434993 z m -2.07119,0.06305 c 0.0798,-0.02472 0.14986,0.05081 0.14986,0.245463 0,0.1397 -0.0347,0.253731 -0.0775,0.253731 -0.0428,0 -0.13333,0.02155 -0.20103,0.04754 -0.0953,0.03656 -0.11274,-0.0067 -0.0785,-0.190686 0.0383,-0.206532 0.12741,-0.331334 0.20722,-0.356051 z m -0.53175,0.166398 c 0.0915,0.0097 0.10186,0.120723 0.0372,0.346232 -0.11212,0.390942 -0.28681,0.411364 -0.28681,0.03359 0,-0.197739 0.0463,-0.323661 0.13074,-0.356051 0.0488,-0.01874 0.0884,-0.027 0.11886,-0.02377 z m -0.55397,0.09198 c 0.13443,-0.01368 0.13638,0.06445 0.11058,0.341065 -0.0233,0.250273 -0.0804,0.372169 -0.19482,0.417029 -0.27111,0.106306 -0.28835,0.08839 -0.28835,-0.29559 0,-0.313299 0.0294,-0.379096 0.19017,-0.422196 0.0781,-0.02093 0.13761,-0.03575 0.18242,-0.04031 z m -0.81081,0.154513 c 0.14913,-0.01426 0.18397,0.09712 0.18397,0.411344 0,0.356916 -0.0276,0.422906 -0.21549,0.508496 -0.11861,0.05405 -0.23315,0.09819 -0.25425,0.09819 -0.021,0 -0.0382,-0.205686 -0.0382,-0.45682 0,-0.338263 0.0346,-0.46991 0.13384,-0.507979 0.0781,-0.02996 0.14047,-0.04847 0.19017,-0.05323 z m -0.709,0.171049 c 0.15867,-1.41e-4 0.1707,0.04299 0.1447,0.502295 -0.0265,0.468357 -0.0449,0.508394 -0.27492,0.588594 L 107.1826,99.396 v -0.486792 c 0,-0.516175 0.0953,-0.689626 0.37724,-0.689881 z m -0.77049,0.169498 c 0.17653,0 0.18322,0.0265 0.13952,0.547771 -0.0253,0.301291 -0.0831,0.582585 -0.12867,0.625285 -0.0456,0.04273 -0.16859,0.103692 -0.27337,0.135392 -0.1855,0.0561 -0.19068,0.04152 -0.19068,-0.574125 0,-0.668673 0.0404,-0.734323 0.4532,-0.734323 z m -0.80616,0.168982 c 0.12197,-1.72e-4 0.13781,0.08958 0.11421,0.666626 -0.0251,0.61475 -0.044,0.674228 -0.23719,0.762228 -0.11525,0.0525 -0.22644,0.0956 -0.24754,0.0956 -0.021,0 -0.0382,-0.319705 -0.0382,-0.710545 0,-0.738118 0.0374,-0.813396 0.40876,-0.813904 z m -0.86816,0.169499 c 0.20094,0 0.20516,0.01349 0.20516,0.748792 0,0.719832 -0.008,0.751962 -0.21549,0.846462 -0.37704,0.17178 -0.3981,0.13976 -0.339,-0.515733 0.0897,-0.994336 0.11704,-1.079521 0.34933,-1.079521 z m -0.62632,0.128674 c 0.0463,-0.0059 0.0791,-0.0057 0.0868,0.0021 0.0155,0.01549 -0.006,0.406774 -0.0481,0.869714 l -0.0765,0.841806 -0.28526,0.13591 c -0.33718,0.1608 -0.3287,0.20705 -0.17156,-0.998387 0.0931,-0.71426 0.11065,-0.759127 0.32556,-0.816487 0.0626,-0.0167 0.12265,-0.02872 0.16898,-0.03462 z m -0.8232,0.176734 c 0.16883,-0.01465 0.15531,0.117699 0.0362,1.086236 -0.0624,0.50723 -0.13979,0.80344 -0.22789,0.87334 -0.31685,0.25139 -0.35818,0.14621 -0.30128,-0.76223 0.0618,-0.987193 0.1099,-1.12668 0.40928,-1.18391 0.0318,-0.0061 0.0596,-0.01134 0.0837,-0.01344 z m -0.76636,0.182934 c 0.0872,0.01637 0.0833,0.128624 0.0636,0.569991 -0.0145,0.325961 -0.0519,0.796321 -0.0832,1.044901 -0.0513,0.40784 -0.084,0.46324 -0.33228,0.56741 -0.15134,0.064 -0.27483,0.0885 -0.2744,0.0558 0.002,-0.16153 0.25122,-2.1597 0.27182,-2.1792 0.0131,-0.0124 0.11841,-0.03599 0.23409,-0.05219 0.0522,-0.0073 0.0913,-0.01217 0.12041,-0.0067 z m -0.77205,0.173116 c 0.0675,0.01436 0.0944,0.06163 0.0868,0.143144 -0.1587,1.707362 -0.23079,2.148802 -0.35709,2.185402 -0.0743,0.0216 -0.2061,0.0683 -0.293,0.10387 -0.1279,0.0524 -0.14914,0.0342 -0.11214,-0.0961 0.0251,-0.0885 0.093,-0.6314 0.15038,-1.20613 0.059,-0.590192 0.14468,-1.058189 0.19688,-1.075389 0.15309,-0.05055 0.26067,-0.06914 0.32815,-0.05478 z m -0.81752,0.129708 c 0.15092,-0.02099 0.14264,0.136792 0.0346,1.031458 -0.0448,0.37131 -0.096,0.84529 -0.11369,1.05317 -0.0284,0.33438 -0.0638,0.39069 -0.30695,0.48989 l -0.27492,0.11214 0.0481,-0.23616 c 0.0264,-0.12987 0.1081,-0.71129 0.1819,-1.29243 0.0738,-0.58113 0.14086,-1.062184 0.14986,-1.069184 0.009,-0.0068 0.10193,-0.0386 0.2067,-0.0708 0.0282,-0.0087 0.0529,-0.01509 0.0744,-0.01809 z m -0.6289,0.168465 c 0.0402,0.002 0.0656,0.01028 0.0651,0.02635 -10e-4,0.03997 -0.074,0.605273 -0.16175,1.256763 -0.0877,0.65148 -0.14256,1.21201 -0.12196,1.24541 0.0206,0.0334 -0.0761,0.1194 -0.21497,0.1912 -0.50997,0.26372 -0.512507,0.25167 -0.257348,-1.2299 0.128898,-0.74842 0.247348,-1.373992 0.263548,-1.390092 0.0564,-0.05663 0.30678,-0.105801 0.42737,-0.09974 z m -0.833545,0.142627 c 0.12232,-0.001 0.146721,0.04209 0.108521,0.194306 -0.04149,0.16527 -0.47749,2.59243 -0.47749,2.65823 0,0.0122 -0.137772,0.0799 -0.306442,0.15038 -0.383989,0.16047 -0.39203,0.16037 -0.33693,-0.0196 0.02496,-0.0815 0.180642,-0.75612 0.346232,-1.49914 0.16558,-0.74302 0.348043,-1.380666 0.405143,-1.416966 0.05707,-0.0362 0.174467,-0.06651 0.260966,-0.06718 z" /></g></svg>
