<svg width="64" height="65" viewBox="0 0 64 65" fill="none" xmlns="http://www.w3.org/2000/svg">
<path d="M6.40955 19.1008L31.9999 31.8944L57.5903 19.1008C57.4956 17.4702 56.781 15.9376 55.593 14.8167C54.4049 13.6959 52.8333 13.0717 51.1999 13.072H12.7999C11.1666 13.0717 9.59498 13.6959 8.40691 14.8167C7.21885 15.9376 6.50428 17.4702 6.40955 19.1008Z" fill="white"/>
<path d="M57.6 26.2495L32 39.0495L6.40002 26.2495V45.0719C6.40002 46.7693 7.07431 48.3972 8.27454 49.5974C9.47477 50.7976 11.1026 51.4719 12.8 51.4719H51.2C52.8974 51.4719 54.5253 50.7976 55.7255 49.5974C56.9257 48.3972 57.6 46.7693 57.6 45.0719V26.2495Z" fill="white"/>
</svg>
