<svg width="128" height="39" viewBox="0 0 128 39" fill="none" xmlns="http://www.w3.org/2000/svg">
<path d="M122.688 38.272C123.385 38.2727 124.075 38.1361 124.719 37.8701C125.363 37.6041 125.949 37.2138 126.442 36.7215C126.935 36.2292 127.327 35.6446 127.594 35.001C127.861 34.3575 127.999 33.6675 128 32.9707C128.001 32.2738 127.864 31.5836 127.598 30.9395C127.332 30.2954 126.942 29.71 126.449 29.2167C125.957 28.7235 125.373 28.332 124.729 28.0647C124.085 27.7973 123.396 27.6594 122.699 27.6587C121.291 27.6573 119.941 28.215 118.945 29.2092C117.949 30.2034 117.388 31.5526 117.387 32.96C117.385 34.3674 117.943 35.7178 118.937 36.7139C119.931 37.7101 121.281 38.2706 122.688 38.272ZM117.376 18.512H112.843C109.931 18.512 108.363 20.6987 108.363 24.336V37.488H99.776V18.512H96.128C93.2107 18.512 91.648 20.6987 91.648 24.336V37.488H83.0613V11.4933H91.648V15.44C93.056 12.3787 94.9867 11.4933 97.8507 11.4933H108.368V15.44C109.776 12.3787 111.701 11.4933 114.565 11.4933H117.376V18.512ZM81.184 26.5173H63.2693C63.7387 29.4293 65.5627 31.0933 68.6347 31.0933C70.928 31.0933 72.5387 30.16 73.0613 28.496L80.6613 30.6293C78.7893 35.152 74.1547 37.904 68.6347 37.904C59.312 37.904 55.04 30.6773 55.04 24.4907C55.04 18.4107 58.7893 11.1307 68.1067 11.1307C78.0053 11.1307 81.2853 18.512 81.2853 23.9733C81.2853 25.168 81.232 25.9467 81.1787 26.5173H81.184ZM72.8533 21.4773C72.64 19.2373 71.0293 17.1573 68.112 17.1573C65.4027 17.1573 63.792 18.3573 63.2693 21.4773H72.8533ZM40.0427 37.4827H47.5947L57.0187 11.488H48.3787L43.792 26.6187L39.1093 11.488H30.5067L40.0373 37.4827H40.0427ZM4.84267 37.4827H13.3867V18.5067H21.5147V37.4827H30V11.488H13.3867V9.87733C13.3867 8.10667 14.64 7.01867 16.6187 7.01867H21.5147V0H15.2C9.00267 0 4.83733 3.79733 4.83733 9.36V11.4933H0V18.512H4.84267V37.488V37.4827Z" fill="#1DBF73"/>
</svg>
