<svg width="64" height="65" viewBox="0 0 64 65" fill="none" xmlns="http://www.w3.org/2000/svg">
<g clip-path="url(#clip0_24_419)">
<path fill-rule="evenodd" clip-rule="evenodd" d="M32 0.271973C14.32 0.271973 0 14.592 0 32.272C0 46.432 9.16 58.392 21.88 62.632C23.48 62.912 24.08 61.952 24.08 61.112C24.08 60.352 24.04 57.832 24.04 55.152C16 56.632 13.92 53.192 13.28 51.392C12.92 50.472 11.36 47.632 10 46.872C8.88 46.272 7.28 44.792 9.96 44.752C12.48 44.712 14.28 47.072 14.88 48.032C17.76 52.872 22.36 51.512 24.2 50.672C24.48 48.592 25.32 47.192 26.24 46.392C19.12 45.592 11.68 42.832 11.68 30.592C11.68 27.112 12.92 24.232 14.96 21.992C14.64 21.192 13.52 17.912 15.28 13.512C15.28 13.512 17.96 12.672 24.08 16.792C26.64 16.072 29.36 15.712 32.08 15.712C34.8 15.712 37.52 16.072 40.08 16.792C46.2 12.632 48.88 13.512 48.88 13.512C50.64 17.912 49.52 21.192 49.2 21.992C51.24 24.232 52.48 27.072 52.48 30.592C52.48 42.872 45 45.592 37.88 46.392C39.04 47.392 40.04 49.312 40.04 52.312C40.04 56.592 40 60.032 40 61.112C40 61.952 40.6 62.952 42.2 62.632C48.5525 60.4872 54.0725 56.4045 57.9831 50.9583C61.8937 45.5121 63.9981 38.9767 64 32.272C64 14.592 49.68 0.271973 32 0.271973Z" fill="#9FEEFF"/>
</g>
<defs>
<clipPath id="clip0_24_419">
<rect width="64" height="64" fill="white" transform="translate(0 0.271973)"/>
</clipPath>
</defs>
</svg>
